<svg width="208" height="66" viewBox="0 0 208 66" fill="none" xmlns="http://www.w3.org/2000/svg">
<path d="M40.3752 64.2513C38.3267 65.2006 34.8292 65.9001 30.1825 65.9001C19.8897 65.9001 12.9946 59.6045 12.9946 49.4118C12.9946 40.7179 16.8919 33.9227 22.7877 29.9755C26.8348 27.2275 31.5315 25.8784 37.0276 25.8784C41.2246 25.8784 44.4224 26.8777 45.5716 27.4773L43.2732 34.2225C42.174 33.7229 39.5758 32.9734 36.2282 32.9734C32.8806 32.9734 29.7328 34.0226 27.3345 35.9713C24.0868 38.6694 21.9883 43.0662 21.9883 48.4624C21.9883 54.6081 25.4858 58.8051 32.281 58.8051C35.029 58.8051 37.7771 58.3554 39.6757 57.556L40.3752 64.2513Z" fill="#008755"/>
<path d="M71.2035 48.1127C71.2035 58.4554 64.1085 66 54.3654 66C47.2204 66 42.4238 61.3533 42.4238 54.3083C42.4238 44.5652 49.219 36.4709 59.2619 36.4709C66.8066 36.4709 71.2035 41.6673 71.2035 48.1127ZM51.0177 54.1584C51.0177 57.4561 52.6166 59.6545 55.5645 59.6545C60.0114 59.6545 62.6095 52.9593 62.6095 48.1627C62.6095 45.5645 61.4604 42.8165 58.1627 42.8165C53.3661 42.8165 51.0177 49.8115 51.0177 54.1584Z" fill="#008755"/>
<path d="M71.9028 65.3506L75.5003 46.3141C76.2498 42.7166 76.6495 39.6688 77.0492 37.1705H84.394L83.8943 41.8172H83.9943C86.6424 38.1698 90.09 36.521 93.8373 36.521C98.4341 36.521 101.082 39.369 101.082 44.2655C101.082 45.5146 100.832 47.6131 100.632 49.0122L97.5347 65.4005H89.1906L92.1885 49.7616C92.3384 48.7623 92.4883 47.7131 92.4883 46.6638C92.4883 44.6652 91.7888 43.2662 89.6403 43.2662C86.9422 43.2662 83.7445 46.6638 82.5953 52.9094L80.2469 65.4005H71.9028V65.3506Z" fill="#008755"/>
<path d="M120.868 27.1274C123.616 26.5278 127.264 26.228 131.061 26.228C135.158 26.228 138.106 26.7277 140.704 28.2266C143.302 29.5757 145.201 32.0739 145.201 35.3716C145.201 40.2681 141.604 43.3659 137.357 44.615V44.7649C141.104 45.9141 143.452 48.9619 143.452 53.2589C143.452 57.4559 141.204 60.4538 138.156 62.5023C134.858 64.7508 129.962 65.6501 123.516 65.6501C119.12 65.6501 115.622 65.3503 113.723 64.9506L120.868 27.1274ZM122.967 59.0048C123.966 59.1048 124.915 59.1048 126.165 59.1048C130.661 59.1048 134.758 57.306 134.758 53.0091C134.758 49.1618 131.511 48.0126 127.664 48.0126H125.065L122.967 59.0048ZM126.314 41.9669H129.063C133.609 41.9669 136.707 40.0183 136.707 36.6706C136.707 33.9226 134.459 32.6735 131.311 32.6735C129.862 32.6735 128.663 32.7734 128.013 32.9233L126.314 41.9669Z" fill="#E31E2D"/>
<path d="M145.351 65.3505L148.549 48.5624C149.348 44.3154 149.698 39.5688 149.998 37.1205H157.193C157.043 39.0191 156.893 40.9178 156.693 42.8664H156.843C158.842 39.1191 161.989 36.4709 165.837 36.4709C166.336 36.4709 166.886 36.471 167.385 36.5209L165.787 44.6152C165.387 44.5652 164.937 44.5652 164.438 44.5652C159.141 44.5652 156.643 49.3119 155.644 54.808L153.695 65.3005H145.351V65.3505Z" fill="#E31E2D"/>
<path d="M164.387 65.3505L169.734 37.1705H178.028L172.682 65.3505H164.387ZM174.88 33.6729C172.582 33.6729 170.883 32.0741 170.883 29.6258C170.883 26.7778 173.131 24.8792 175.679 24.8792C178.178 24.8792 179.876 26.478 179.876 28.9762C179.876 31.9242 177.628 33.623 174.98 33.623H174.88V33.6729Z" fill="#E31E2D"/>
<path d="M207.407 48.1127C207.407 58.4554 200.312 66 190.569 66C183.424 66 178.627 61.3533 178.627 54.3083C178.627 44.5652 185.423 36.4709 195.466 36.4709C203.01 36.4709 207.407 41.6673 207.407 48.1127ZM187.221 54.1584C187.221 57.4561 188.82 59.6545 191.768 59.6545C196.215 59.6545 198.813 52.9593 198.813 48.1627C198.813 45.5645 197.664 42.8165 194.366 42.8165C189.57 42.8165 187.221 49.8115 187.221 54.1584Z" fill="#E31E2D"/>
<path d="M27.0347 0.896142C28.2838 1.096 30.0326 0.99607 31.6315 0.746246C32.3809 0.596353 33.0804 0.246603 33.7799 0.0467447C34.2296 -0.103149 34.9291 0.146671 35.3288 0.2466C35.8285 0.346529 36.3281 0.446462 36.7778 0.546391C38.7764 0.996073 40.725 2.04533 43.2732 2.49501C44.6223 2.99465 45.7215 3.4943 46.3211 4.49359C46.6208 4.94327 46.7707 5.44292 46.8707 6.14243C46.9706 6.69204 47.1205 7.24165 47.0705 7.74129C47.0705 7.99112 47.0206 8.24094 47.0206 8.49076C46.9706 9.93974 46.6208 10.989 45.8214 11.6385C45.5216 11.8884 44.972 12.1382 44.8221 12.5379C44.7721 12.7877 44.7721 13.0875 44.7721 13.3373C44.6223 14.0868 44.4224 14.7363 44.1726 15.4358C43.8728 16.3352 43.4231 17.2845 43.4231 18.3838C43.4231 19.1832 43.9727 19.6828 44.1226 20.2824C44.1726 20.5322 44.1726 20.9819 44.2725 21.1818C44.3724 21.4316 44.5223 21.6315 44.6223 21.9312C44.7222 22.1811 44.7721 22.5308 44.8221 22.8806C45.022 24.4295 45.3717 25.7785 45.6715 27.1775C45.6715 27.2775 45.8714 27.927 45.7215 28.0269C45.4217 28.2768 45.2218 27.927 45.1719 27.927C44.7721 27.5773 44.2725 27.2775 43.8228 27.1276C42.0741 26.4281 39.8256 26.3281 37.2775 26.3281C36.7778 26.3281 36.2282 26.2282 35.7785 26.2782C35.5287 26.2782 35.2789 26.3781 35.029 26.3781C34.3295 26.3781 33.5301 26.3781 32.8806 26.478C32.3809 26.578 31.8813 26.6279 31.4316 26.7279C31.1818 26.7778 30.9819 26.7279 30.7821 26.7778C30.5322 26.8278 30.3324 26.8778 30.1325 26.9277C27.6343 27.6772 25.3359 28.7264 23.3873 29.9756C22.7377 30.4252 22.0382 30.8249 21.5386 31.3246C21.2888 31.5744 21.0889 31.9242 20.8391 32.124C20.5893 32.3739 20.2895 32.5737 19.9897 32.8235C19.6899 33.0734 19.54 33.3232 19.2902 33.573C19.0404 33.8228 18.9404 34.1226 18.7406 34.4724C18.3908 34.972 17.9911 35.2218 17.5414 35.5716C17.4415 35.6715 17.2916 35.6715 17.1417 35.7715C16.9918 35.8714 16.9419 35.9713 16.792 36.0213C16.6421 36.0712 16.3423 35.9713 16.1424 35.9213C15.6927 35.8214 15.293 35.7715 14.8933 35.6216C14.6934 35.5216 14.5436 35.3717 14.3437 35.3717C14.0939 35.3218 13.7941 35.4217 13.6442 35.3717C13.4443 35.3218 13.0946 34.8721 13.0446 34.6722C12.9447 34.3225 13.0446 34.0227 12.9447 33.7729C12.545 32.7736 10.6963 32.5737 9.34723 32.4738C8.49783 32.4238 7.5485 32.3239 6.64914 32.224C6.34935 32.174 5.94963 32.224 5.69981 32.124C5.54992 32.0741 5.25013 31.6743 5.05027 31.4745C4.80045 31.2247 4.60059 30.9748 4.4507 30.775C4.00101 30.2753 3.6013 29.8257 3.20158 29.326C2.80186 28.8264 2.40215 28.2268 1.95246 27.7771C1.45282 27.2775 0.803278 26.8777 0.453525 26.3281C0.253667 26.0283 0.00384675 25.5287 0.00384675 25.179C-0.0461179 24.5294 0.403562 24.2296 0.603421 23.7799C0.753315 23.4802 0.753314 23.1304 0.903208 22.8806C1.0531 22.5308 1.40285 22.331 1.60271 22.0312C2.20229 21.1318 2.55204 20.1325 2.95176 18.9833C3.35147 17.9341 3.90108 16.9348 4.20087 15.8855C4.3008 15.4858 4.35077 15.1361 4.40073 14.6864C4.4507 14.3366 4.75048 14.0868 4.85041 13.737C5.00031 13.1874 5.05027 12.5879 5.20016 12.0383C5.9996 9.44009 7.29868 7.19168 8.99748 5.44292C9.64702 4.79338 10.4465 3.84405 11.4457 3.6442C11.8954 3.54427 12.3951 3.59423 12.8448 3.4943C13.2944 3.39437 13.7441 3.29444 14.1938 3.19451C15.1431 2.99466 16.0925 2.94469 17.0418 2.69487C18.6406 2.24519 20.2395 1.89544 21.4387 1.04604C21.5886 0.946108 21.7884 0.746247 21.9883 0.696283C22.1881 0.646318 22.5379 0.64632 22.7877 0.596355C23.0375 0.596355 23.3373 0.546391 23.5871 0.546391C24.0868 0.546391 24.7863 0.396495 25.186 0.446459C25.6857 0.34653 26.2852 0.746248 27.0347 0.896142ZM23.787 0.746246C23.787 0.746246 23.787 0.696282 23.787 0.746246C22.1382 0.746246 21.2888 1.89543 20.1396 2.59494C19.59 2.94469 18.9404 3.14455 18.2409 3.39437C17.0418 3.79409 15.6927 4.09388 14.3937 4.14384C13.844 4.14384 13.3444 3.99395 12.7948 3.99395C12.0953 3.99395 11.5956 4.3437 11.096 4.69345C10.3465 5.1931 9.84688 5.79268 9.2473 6.39225C8.94751 6.69204 8.5478 6.94186 8.34794 7.24165C8.19804 7.49147 8.09812 7.89119 7.99819 8.19098C7.89826 8.4408 7.79833 8.69062 7.6984 8.89048C7.44857 9.2902 7.14879 9.49006 6.99889 9.83981C6.74907 10.3894 6.64914 11.2388 6.44928 11.8884C5.20016 16.3852 3.4514 20.4823 1.60271 24.6793C1.45282 24.9791 1.203 25.4288 1.25296 25.6286C1.30293 26.0283 1.80257 26.2782 2.0524 26.7279C2.15232 26.8777 2.25225 27.1276 2.35218 27.2775C2.55204 27.6272 3.00172 27.877 3.25155 28.1768C3.85112 28.8264 4.3008 29.326 4.90038 29.9756C5.10024 30.2254 5.44999 30.6751 5.74978 30.775C6.1495 30.9748 6.94893 30.9249 7.49854 31.0248C8.64773 31.2247 9.44716 31.4245 10.5963 31.5744C10.8462 31.6244 11.096 31.6244 11.3958 31.6244C11.6956 31.6744 12.3451 31.8742 12.495 31.7743C12.6449 31.5744 12.3451 30.1254 12.2951 29.7757C12.2951 29.4259 12.3451 29.1262 12.2951 28.7764C12.2452 28.5266 12.2951 28.0769 12.1452 27.977C11.9954 27.877 11.046 27.7771 10.7962 27.7771C10.0967 27.7771 9.14737 27.7771 7.94822 27.927C7.6984 28.0269 7.44857 28.0769 7.39861 28.1768C7.29868 28.3267 7.59847 28.6265 7.74836 28.7264C8.04815 28.9263 8.29797 29.1262 8.44786 29.2261C8.69769 29.376 9.29727 29.4259 9.59705 29.5259C9.74695 29.5758 10.4465 29.7757 10.4964 30.0255C10.5464 30.2254 10.0467 30.3253 9.74695 30.3253C8.99748 30.2753 8.64773 29.9256 7.99819 29.6758C7.34865 29.4259 6.6991 29.1262 6.39932 28.4766C6.14949 27.927 6.24942 27.0276 6.6991 26.7279C7.04886 26.528 7.64843 26.6279 8.14808 26.6279C9.04744 26.578 10.4465 26.478 11.4957 26.6779C11.7955 26.7778 12.7448 26.7778 12.9447 26.8777C13.0446 26.9277 13.0446 27.1276 13.0446 27.2275C12.9946 27.7771 13.0946 28.5266 13.1945 29.2761C13.2944 31.2746 14.0439 32.7236 14.2937 34.0227C14.3437 34.2725 14.3937 34.6223 14.5935 34.7222C14.7434 34.8221 14.9932 34.8721 15.1431 34.9221C15.5428 35.022 15.9925 35.0719 16.3922 34.8221C16.792 34.6223 17.0917 34.2225 17.3416 33.8728C17.6913 33.4731 18.091 33.2233 18.2909 32.9235C18.3908 32.7736 18.4908 32.4238 18.5407 32.3239C18.6406 32.174 18.9904 32.0241 19.1903 31.8742C19.7898 31.4245 20.4394 30.825 20.989 30.3753C21.8384 29.6258 22.7877 29.0762 23.787 28.5266C26.7349 26.8777 30.3324 25.4787 34.6293 25.3288C38.3767 25.0291 41.3246 25.2789 44.0726 25.9784C44.1726 25.9784 44.3225 26.0783 44.4224 25.9784C44.5223 25.8785 44.4724 24.9291 44.4724 24.7293C44.2725 22.6807 43.4231 21.2817 42.8735 19.1832C42.7736 18.7835 42.6736 18.2838 42.6237 17.7342C42.5737 17.2346 42.5737 16.5351 42.3738 16.1354C42.2739 15.9355 41.9741 15.7356 41.7243 15.5857C41.0748 15.0861 40.2753 14.5864 39.4759 14.3366C38.7264 14.0868 37.7771 13.6371 37.0276 13.3373C36.7778 13.2374 36.478 13.1375 36.3281 12.9376C36.1782 12.6878 36.1283 12.0383 36.2782 11.7884C36.528 11.4886 37.2275 11.5386 37.3774 11.2888C37.4773 11.1389 37.4273 10.4893 37.4273 10.3894C37.4773 10.0896 37.6772 9.49006 37.7771 9.24023C37.8271 9.04037 38.1269 8.2909 38.2767 8.24094C38.4766 8.19098 38.5765 8.49076 38.6265 8.74059C38.6765 8.94044 38.7764 9.39013 38.8763 9.39013C39.1261 9.49006 39.5758 8.64066 39.6758 8.4408C39.8756 8.09105 40.1754 7.5914 40.2254 7.19168C40.3253 6.34229 39.8756 4.64349 40.775 4.39367C41.4245 4.19381 41.6244 5.09317 41.4745 5.79268C41.3246 6.69204 40.3753 8.2909 39.8256 9.24023C39.5758 9.63995 39.376 10.2395 39.2261 10.3894C39.0762 10.4893 38.5266 10.4394 38.3767 10.5893C38.0269 10.7891 37.7771 12.0383 37.977 12.4879C38.1269 12.8877 38.8264 13.1375 39.2261 13.2874C40.0755 13.6871 41.0748 14.1368 41.8742 14.7363C42.0241 14.8862 42.8735 15.4858 43.1733 15.3359C43.3731 15.236 43.4231 14.4865 43.4731 14.2367C43.6729 12.0383 42.9734 9.04038 44.1226 7.79126C44.2225 7.64137 44.5223 7.44151 44.7222 7.39154C44.972 7.34158 45.4716 7.49147 45.5216 7.74129C45.5716 7.99112 45.1719 8.54073 45.022 8.84052C44.7222 9.44009 44.4724 9.88978 44.8221 10.5893C44.8721 10.6892 44.972 10.989 45.1719 10.989C45.6215 11.0889 45.8714 10.2395 45.9213 9.93974C46.1712 8.69062 46.1712 7.09176 45.9213 5.54285C45.8714 5.24307 45.8714 4.84335 45.7714 4.69345C45.6715 4.49359 45.2718 4.3437 45.022 4.19381C44.7222 4.04391 44.4224 3.84405 44.2225 3.74412C43.573 3.44434 43.1733 3.04462 42.6736 2.7948C42.3239 2.64491 41.9741 2.54497 41.5744 2.44504C39.7257 2.04533 38.2767 1.54568 36.6779 1.096C36.0783 0.946107 35.3288 0.696283 34.8292 0.696283C34.1796 0.746247 33.0804 1.096 32.3809 1.29586C31.5315 1.49572 30.6821 1.69558 30.1325 1.64561C29.8827 1.59565 29.6828 1.34582 29.433 1.34582C28.5836 1.2459 27.6842 1.84547 26.9847 1.54568C26.7349 1.44575 26.585 1.29586 26.3852 1.14596C26.1853 0.996071 25.9355 0.896143 25.6857 0.846178C24.9862 0.846178 24.3866 0.746246 23.787 0.746246ZM26.5351 4.69345C25.8356 4.59352 25.5857 6.34229 25.5358 7.14172C25.4858 7.99112 25.6357 9.24024 25.8855 9.78985C25.9854 9.98971 26.2852 10.3894 26.3852 10.2895C26.4851 10.2395 26.4851 9.34016 26.4851 8.99041C26.585 7.89119 26.585 7.39154 26.7349 6.44221C26.8848 5.79267 27.2346 4.79338 26.5351 4.69345ZM19.7399 5.69274C19.4401 5.74271 19.8398 6.44221 19.9897 6.64207C20.4394 7.44151 21.2388 8.14101 21.5886 9.04038C21.7884 9.54002 21.9383 10.1896 22.1382 10.7891C22.5379 11.9883 22.8876 12.8877 23.4373 13.787C23.6871 14.1368 24.0868 14.8363 24.3366 14.8363C24.7363 14.7863 24.5864 14.0368 24.4865 13.5372C24.4365 13.3873 24.2367 12.8877 24.3866 12.7378C24.5365 12.5379 24.8862 13.3873 24.9862 13.5872C25.0861 13.787 25.2859 14.5864 25.5358 14.5864C25.6357 14.5864 25.8356 14.2367 25.8356 14.0368C25.8356 13.7371 25.6357 13.5372 25.5857 13.3873C25.4858 13.1874 25.3859 12.9376 25.3359 12.6878C25.186 12.2381 24.9362 11.7884 24.8363 11.2888C24.5365 9.54002 24.8363 7.64136 24.0368 6.742C23.9369 6.64207 23.9369 6.59211 23.837 6.59211C23.6871 6.64207 23.5871 7.64136 23.5372 7.99112C23.4373 9.04037 23.4872 10.3894 23.5372 11.5386C23.5372 11.8384 23.6371 12.1881 23.5372 12.2881C23.3873 12.388 23.0875 11.6385 23.0875 11.6885C22.7377 10.939 22.4879 9.83981 22.1881 9.04038C21.5886 7.44151 20.939 6.24235 19.8898 5.74271C19.7399 5.69274 19.7399 5.69274 19.7399 5.69274ZM32.1811 4.94328C31.9312 4.94328 31.6814 5.34299 31.4816 5.64278C30.4823 6.84193 29.6828 8.19098 29.1832 9.78985C28.9334 10.5893 28.4837 11.1389 28.3338 11.9383C28.2838 12.0882 28.2838 12.9876 28.4337 13.0875C28.6336 13.1874 28.9334 12.438 29.0333 12.2881C30.1325 10.3894 31.3816 8.94044 32.3809 6.742C32.5308 6.39225 32.7806 5.89261 32.7806 5.54285C32.7307 5.24307 32.281 4.94328 32.1811 4.94328ZM36.478 4.14384C36.3281 4.14384 35.6786 4.84335 35.6786 5.24306C35.6786 5.54285 35.9284 5.49289 36.0283 5.69274C36.1782 5.94257 36.2782 6.29232 36.3281 6.79197C36.4281 7.49147 36.1782 8.84052 36.528 8.89048C36.7778 8.89048 37.2275 8.09105 37.2775 7.84123C37.5273 6.94186 37.2275 6.0425 37.0276 5.29303C36.8777 4.79338 36.7278 4.14384 36.478 4.14384ZM13.894 10.6892C13.4943 10.6392 12.9946 10.7891 12.9946 11.1389C12.9946 11.3887 13.3444 11.8884 13.4443 11.9883C13.5942 12.1382 13.7941 12.1881 13.9939 12.338C14.1938 12.438 14.3937 12.6378 14.5935 12.8377C14.7434 13.0375 15.1931 13.5872 15.1431 13.787C15.0932 13.9369 14.5935 13.5372 14.4436 13.4373C13.894 12.9876 13.6442 12.7877 13.0446 12.4879C12.8448 12.388 12.3451 12.0383 12.2951 12.2881C12.2452 12.5379 12.8448 12.8377 12.8947 12.9376C13.2445 13.2374 13.7441 13.787 14.1938 14.2867C15.2431 15.3859 16.2423 16.5351 17.1417 17.984C17.2416 18.1339 17.4915 18.7835 17.6414 18.8334C17.7913 18.8834 17.9911 18.6336 18.091 18.5337C18.2409 18.4337 18.4408 18.2838 18.5907 18.2339C18.7406 18.1839 18.8905 18.2339 18.9404 18.1339C19.0404 17.8342 18.4908 16.685 18.3908 16.4851C17.8912 15.5857 17.2916 15.0361 16.692 14.2367C16.4922 14.0368 15.8426 13.2874 15.8926 13.0375C15.9426 12.7877 16.3922 13.0375 16.5421 13.1375C17.0917 13.4872 17.2416 13.7371 17.7413 14.1368C17.8412 14.2367 18.2909 14.5365 18.3409 14.4366C18.4408 14.3366 18.2409 13.7371 18.141 13.5372C17.9411 13.2374 17.4415 12.9376 17.0917 12.5879C16.9419 12.388 16.792 12.0882 16.6421 12.0383C16.3922 11.8884 16.1424 11.9383 15.8926 11.7884C15.293 11.3887 14.6934 10.7891 13.894 10.6892ZM9.64702 11.8884C9.44716 11.8884 9.04744 11.8884 8.79762 12.0383C8.5478 12.1881 8.24801 12.4879 8.29797 12.6878C8.34794 13.0375 8.89755 13.4373 9.09741 13.5872C9.44716 13.787 9.89684 13.9369 10.3465 13.9869C10.9961 14.0868 11.7955 13.9369 12.2951 14.1867C12.6449 14.3366 13.1445 14.8363 13.4943 15.186C14.4936 16.1853 15.1931 17.0847 16.0925 18.2838C16.2423 18.4337 16.4922 18.8834 16.5921 18.5836C16.692 18.3838 16.1924 17.8342 16.0425 17.5843C15.343 16.685 14.5935 15.7356 13.844 14.9862C13.3444 14.4865 12.7448 13.9869 12.1952 13.4373C11.4457 12.7378 10.6963 12.0383 9.64702 11.8884ZM32.4809 11.0889C32.331 11.0889 31.5315 11.8384 31.4816 12.0383C31.4316 12.388 31.5815 13.2374 31.7314 13.2874C31.9312 13.3373 32.3809 13.0375 32.4809 12.8877C32.6307 12.6878 32.7806 12.2881 32.7806 11.8884C32.7806 11.5886 32.7307 11.1389 32.4809 11.0889ZM34.5294 10.8391C34.4794 10.8391 34.5294 10.8391 34.5294 10.8391C33.4302 11.1389 33.8799 13.2874 34.7293 13.2374C35.029 13.1874 35.4288 12.8877 35.4787 12.6378C35.4787 12.2881 34.7293 10.8891 34.5294 10.8391ZM21.9883 13.3373C21.8884 13.3373 21.6885 13.2874 21.6385 13.5372C21.6385 13.6871 21.8884 14.0868 21.9883 14.2367C22.2881 14.6864 22.4879 14.9862 22.8876 15.286C23.0375 15.3859 23.3373 15.6357 23.4373 15.4858C23.5372 15.3359 23.3873 14.8363 23.3373 14.6364C23.0375 13.837 22.5879 13.3373 21.9883 13.3373ZM30.9319 12.4879C30.3823 12.2881 30.7321 13.5372 31.0818 12.9876C31.1818 12.7877 31.0818 12.5379 30.9319 12.4879ZM26.3352 13.4373C25.9854 13.3873 26.0354 14.1867 26.3352 14.1867C26.585 14.1867 26.685 13.4872 26.3352 13.4373ZM19.8898 14.5864C19.7399 14.5365 19.49 14.7863 19.54 15.0861C19.59 15.7356 20.1396 17.1346 20.3894 17.1846C20.6392 17.2346 20.989 16.7849 21.2388 16.685C21.3887 16.585 21.5886 16.635 21.8384 16.5351C21.9883 16.4851 22.2381 16.1853 22.1382 15.9855C22.0382 15.7356 21.6385 16.0354 21.4387 16.0854C20.8891 16.2353 20.7392 15.9855 20.4394 15.4858C20.2895 15.1361 20.0397 14.6364 19.8898 14.5864ZM10.5963 14.9862C10.5464 14.9862 9.9468 14.8862 9.9468 15.0861C9.9468 15.3359 10.6963 15.8356 10.7962 15.8855C11.3458 16.1853 11.7455 16.2353 12.445 16.685C12.7448 16.8848 13.1945 17.1846 13.4943 17.5843C13.5942 17.6843 13.7941 17.8841 13.7941 17.984C13.7941 18.1339 13.4943 18.034 13.3944 17.984C11.9954 17.6843 10.5464 17.0847 8.84758 17.1846C8.34794 17.2346 7.84829 17.4344 7.64843 17.7342C7.49854 17.9341 7.34865 18.4337 7.49854 18.6835C7.59847 18.8834 8.69769 18.9334 8.94751 19.0333C10.1467 19.433 10.9461 19.9826 11.8455 20.7321C12.0953 20.882 12.545 21.1318 12.1452 21.2817C11.5956 21.5315 10.6963 21.0319 10.0967 20.932C8.89755 20.7821 7.5485 20.882 6.29939 21.0319C5.9996 21.0819 5.25013 21.0819 5.1502 21.2817C5.10024 21.3816 5.20016 21.8813 5.20016 22.0312C5.10024 22.4309 4.70052 22.5308 4.35077 22.7307C4.25084 22.7806 4.10094 22.8806 4.10094 22.9305C4.10094 23.2303 5.10024 23.63 5.49996 23.7799C6.04957 24.0298 6.59918 24.3295 7.09882 24.5794C8.44787 25.079 9.69698 25.3788 11.096 25.5787C11.4957 25.5787 12.0453 25.5287 12.445 25.4288C12.5949 25.4288 12.9946 25.2789 12.9946 25.079C12.9946 24.8292 12.5949 24.5794 12.2951 24.5794C11.9454 24.5294 11.5457 24.7293 11.2459 24.7792C10.9461 24.8292 10.5464 24.7792 10.1966 24.7293C9.14737 24.5794 8.04815 24.2796 7.09882 23.8799C6.79903 23.7799 6.19946 23.5801 6.19946 23.3802C6.19946 23.2303 6.79904 23.1304 6.99889 23.1304C8.34794 23.0305 9.19734 23.8299 10.3965 23.8299C10.5963 23.8299 10.9961 23.7799 11.046 23.63C11.096 23.4302 10.6463 23.0804 10.4964 22.9805C10.0467 22.7307 9.34723 22.6807 8.74766 22.4809C8.59776 22.4309 8.24801 22.331 8.24801 22.231C8.19804 22.0312 8.89755 21.9812 8.99748 21.9812C10.9961 21.8313 12.445 22.4309 14.1438 22.6807C14.3937 22.7307 14.8433 22.8306 14.9433 22.6807C15.0432 22.4809 14.7434 21.7814 14.6435 21.6315C14.1938 20.9819 13.2445 20.6322 12.495 20.1825C12.2452 20.0326 11.8455 19.8327 11.8455 19.5829C11.7955 19.3331 12.1452 19.2831 12.545 19.3331C13.5942 19.5329 14.4436 20.3823 15.3929 20.5322C15.7927 20.5822 16.2423 20.3823 16.2423 19.9327C16.2423 19.7328 16.0925 19.433 15.9426 19.2332C15.6428 18.8334 14.9932 18.4337 14.6934 17.984C14.5935 17.8341 14.4436 17.5344 14.3937 17.4844C14.2937 17.3845 14.0939 17.3345 13.9939 17.2346C13.7941 17.0847 13.5443 16.8349 13.3444 16.635C13.0446 16.3852 12.6449 16.1853 12.2951 15.9355C11.6456 15.5358 11.2958 15.0861 10.5963 14.9862ZM7.29868 25.129C6.19946 24.6793 3.85112 24.0797 4.20087 25.4787C4.20087 25.7286 4.25084 26.1782 4.35077 26.2782C4.4507 26.3281 4.70052 26.2782 4.80045 26.3281C5.64985 26.0283 6.94893 25.9784 7.59847 26.0283C7.79833 25.9784 7.94822 25.4787 7.74836 25.3288C7.54851 25.1789 7.44858 25.2789 7.29868 25.129ZM15.0932 25.9284C14.9433 25.8785 14.6934 26.3781 14.5436 26.578C14.3937 26.8278 14.1938 26.9777 14.1438 27.1775C14.0939 27.2775 14.0439 27.5773 14.0939 27.6772C14.1938 27.8271 14.5436 27.2775 14.5935 27.1775C14.8433 26.8778 15.0432 26.6779 15.1431 26.4281C15.1931 26.2782 15.293 25.9784 15.0932 25.9284ZM16.3423 27.2775C16.1424 27.1276 15.8426 27.7271 15.8926 27.877C15.9925 28.1768 16.5421 27.4773 16.3423 27.2775ZM14.6934 28.8763C14.5935 28.8264 14.2937 29.0762 14.2937 29.2261C14.1938 29.6758 14.9932 29.4759 14.7434 28.8763C14.7434 28.8763 14.6934 28.9263 14.6934 28.8763ZM15.5928 31.5245C15.343 31.3746 15.2431 32.0241 15.3929 32.174C15.4429 32.224 15.6428 32.224 15.6927 32.0741C15.7427 31.8742 15.6927 31.5744 15.5928 31.5245Z" fill="black"/>
</svg>
