<svg xmlns="http://www.w3.org/2000/svg" width="56" height="56" fill="none"  xmlns:v="https://vecta.io/nano"><path d="M.76294 15.9852C1.68389 7.95795 7.96217 1.71841 15.9892.795197 19.8927.346234 24.1509 0 28 0s8.1073.346234 12.0108.795198c8.027.923212 14.3053 7.162752 15.2263 15.190002.4331 3.7757.7629 7.8976.7629 11.6966 0 3.9079-.3489 8.2368-.8004 12.2024-.9212 8.0902-7.2232 14.4107-15.3131 15.3349C36.017 55.6611 31.8083 56 28 56s-8.017-.3389-11.8865-.7809C8.02361 54.2949 1.72157 47.9744.800446 39.8842.348935 35.9186 0 31.5897 0 27.6818c0-3.799.329756-7.9209.76294-11.6966z" fill="#fff"/><path d="M28.1154 41.3334c-.1651 0-.3302-.0379-.4792-.115l-4.8015-2.4855c-1.3624-.706-2.4282-1.4983-3.2604-2.4214-1.8216-2.0187-2.835-4.6101-2.8511-7.2982l-.0564-8.8475c-.0067-1.0212.6524-1.9377 1.6376-2.2828l8.8164-3.0739c.5235-.1869 1.1074-.1895 1.6403-.0091l8.8498 2.9692c.9907.3308 1.6605 1.2408 1.6659 2.2606l.0563 8.8541c.0175 2.6842-.9611 5.286-2.7544 7.3269-.8228.9362-1.8792 1.7402-3.2283 2.4593l-4.7585 2.5417c-.1476.0798-.3114.1203-.4765.1216" fill="#595675"/><path d="M27.0923 31.0946c-.2577.0013-.5154-.0916-.7141-.2825l-2.5558-2.458c-.3946-.3817-.3986-1.0015-.008-1.3859s1.0282-.3896 1.4242-.0091l1.839 1.7677 4.49-4.4271c.392-.3857 1.0296-.3896 1.4242-.0091s.4 1.0028.0094 1.3859l-5.1988 5.1265c-.196.1935-.4524.2902-.7101.2916" fill="#bdbbc8"/></svg>