<svg width="56" height="56" viewBox="0 0 56 56" fill="none" xmlns="http://www.w3.org/2000/svg">
<path d="M0.76294 15.9852C1.68389 7.95795 7.96217 1.71841 15.9892 0.795197C19.8927 0.346234 24.1509 0 28 0C31.8491 0 36.1073 0.346234 40.0108 0.795198C48.0378 1.71841 54.3161 7.95795 55.2371 15.9852C55.6702 19.7609 56 23.8828 56 27.6818C56 31.5897 55.6511 35.9186 55.1996 39.8842C54.2784 47.9744 47.9764 54.2949 39.8865 55.2191C36.017 55.6611 31.8083 56 28 56C24.1917 56 19.983 55.6611 16.1135 55.2191C8.02361 54.2949 1.72157 47.9744 0.800446 39.8842C0.348935 35.9186 0 31.5897 0 27.6818C0 23.8828 0.329756 19.7609 0.76294 15.9852Z" fill="white"/>
<path fill-rule="evenodd" clip-rule="evenodd" d="M23.3756 15.9158C26.2887 14.2231 29.8695 14.2527 32.7553 15.9933C35.6127 17.7693 37.3494 20.939 37.3332 24.3487C37.2667 27.736 35.4045 30.9201 33.0767 33.3815C31.7332 34.8086 30.2302 36.0705 28.5985 37.1415C28.4305 37.2386 28.2464 37.3037 28.0554 37.3334C27.8715 37.3256 27.6925 37.2713 27.5344 37.1753C25.0433 35.5662 22.8579 33.5121 21.0832 31.112C19.5982 29.1086 18.7545 26.6881 18.6667 24.1793C18.6648 20.7631 20.4624 17.6084 23.3756 15.9158ZM25.059 25.5931C25.549 26.8012 26.7057 27.5892 27.9889 27.5892C28.8295 27.5952 29.6377 27.2585 30.2332 26.654C30.8287 26.0496 31.1621 25.2276 31.1591 24.3713C31.1636 23.0641 30.394 21.8832 29.2098 21.3798C28.0255 20.8764 26.6601 21.1499 25.7512 22.0725C24.8422 22.9952 24.5689 24.385 25.059 25.5931Z" fill="#595675"/>
<ellipse opacity="0.4" cx="28.0002" cy="40.0001" rx="6.66667" ry="1.33333" fill="#595675"/>
</svg>
