<svg width="56" height="56" viewBox="0 0 56 56" fill="none" xmlns="http://www.w3.org/2000/svg">
<path d="M0.76294 15.9852C1.68389 7.95795 7.96217 1.71841 15.9892 0.795197C19.8927 0.346234 24.1509 0 28 0C31.8491 0 36.1073 0.346234 40.0108 0.795198C48.0378 1.71841 54.3161 7.95795 55.2371 15.9852C55.6702 19.7609 56 23.8828 56 27.6818C56 31.5897 55.6511 35.9186 55.1996 39.8842C54.2784 47.9744 47.9764 54.2949 39.8865 55.2191C36.017 55.6611 31.8083 56 28 56C24.1917 56 19.983 55.6611 16.1135 55.2191C8.02361 54.2949 1.72157 47.9744 0.800446 39.8842C0.348935 35.9186 0 31.5897 0 27.6818C0 23.8828 0.329756 19.7609 0.76294 15.9852Z" fill="white"/>
<path d="M40.57 15.4378C39.9033 14.7565 38.9166 14.5045 37.9966 14.7711L16.5433 20.9698C15.5726 21.2391 14.8846 22.0085 14.6993 22.9845C14.51 23.9791 15.1713 25.2431 16.0353 25.7711L22.7433 29.8671C23.4313 30.2885 24.3193 30.1831 24.8886 29.6125L32.57 21.9311C32.9566 21.5298 33.5966 21.5298 33.9833 21.9311C34.37 22.3165 34.37 22.9445 33.9833 23.3445L26.2886 31.0258C25.718 31.5965 25.6113 32.4818 26.0313 33.1711L30.13 39.9045C30.61 40.7031 31.4366 41.1578 32.3433 41.1578C32.45 41.1578 32.57 41.1578 32.6766 41.1431C33.7166 41.0111 34.5433 40.3031 34.85 39.3031L41.21 18.0111C41.49 17.1045 41.2366 16.1178 40.57 15.4378Z" fill="#595675"/>
<path opacity="0.4" fill-rule="evenodd" clip-rule="evenodd" d="M16.0141 34.4106C15.7581 34.4106 15.5021 34.3132 15.3074 34.1172C14.9167 33.7266 14.9167 33.0946 15.3074 32.7039L17.1274 30.8826C17.5181 30.4932 18.1514 30.4932 18.5421 30.8826C18.9314 31.2732 18.9314 31.9066 18.5421 32.2972L16.7207 34.1172C16.5261 34.3132 16.2701 34.4106 16.0141 34.4106ZM21.029 36.0004C20.773 36.0004 20.517 35.9031 20.3223 35.7071C19.9317 35.3164 19.9317 34.6844 20.3223 34.2938L22.1423 32.4724C22.533 32.0831 23.1663 32.0831 23.557 32.4724C23.9463 32.8631 23.9463 33.4964 23.557 33.8871L21.7357 35.7071C21.541 35.9031 21.285 36.0004 21.029 36.0004ZM21.3673 40.7578C21.5619 40.9538 21.8179 41.0511 22.0739 41.0511C22.3299 41.0511 22.5859 40.9538 22.7806 40.7578L24.6019 38.9378C24.9913 38.5471 24.9913 37.9138 24.6019 37.5231C24.2113 37.1338 23.5779 37.1338 23.1873 37.5231L21.3673 39.3444C20.9766 39.7351 20.9766 40.3671 21.3673 40.7578Z" fill="#595675"/>
</svg>
