<svg xmlns="http://www.w3.org/2000/svg" width="72" height="72" fill="none"  xmlns:v="https://vecta.io/nano"><g filter="url(#A)"><path fill-rule="evenodd" d="M36 62c15.464 0 28-12.536 28-28S51.464 6 36 6 8 18.536 8 34s12.536 28 28 28z" fill="#8f5db7"/></g><path d="M45.7749 39.3675l-2.2838-1.6583c-1.5354-1.0784-2.9398-1.1622-4.0855.5727-.6433.9741-1.544 1.0168-2.4858.5894-2.5962-1.1772-4.6009-2.991-5.7753-5.6298-.5194-1.1674-.5126-2.2141.7028-3.0399.6435-.4366 1.2918-.9534 1.24-1.9075-.0677-1.2442-3.0885-5.402-4.2814-5.8409-.4937-.1816-.9852-.1698-1.4874-.001-2.7972.9407-3.9558 3.2412-2.8463 5.965 3.3102 8.1266 9.1356 13.784 17.1546 17.237.4572.1966.9651.2752 1.2223.3457 1.8257.0184 3.9644-1.7406 4.582-3.4862.5947-1.6794-.6621-2.346-1.6562-3.1462zm-8.9913-16.0812c5.8625.9015 8.5661 3.6891 9.3126 9.5937.0693.5454-.1339 1.3661.6443 1.3812.8132.0156.6172-.793.6241-1.3389.0687-5.5611-4.7802-10.7164-10.4115-10.9065-.4248.0612-1.3039-.293-1.3588.6593-.0365.642.7036.5365 1.1893.6112zm1.1467 1.6192c-.5639-.0679-1.3083-.3336-1.44.4488-.1376.8212.6921.7378 1.2252.8572 3.6207.8092 4.8814 2.127 5.4776 5.7186.0871.5237-.0859 1.3386.8039 1.2036.6595-.1005.4213-.799.4764-1.2071.0293-3.4482-2.9254-6.5867-6.5431-7.0211zm.3326 2.8192c-.3764.0093-.7458.0501-.8842.4523-.2078.6012.2293.7445.6742.816 1.4853.2384 2.267 1.1143 2.4154 2.5954.0401.402.2952.7278.6835.6819.5381-.0642.5868-.5432.5703-.998.0266-1.6641-1.8542-3.5874-3.4592-3.5476z" fill-rule="evenodd" fill="#fff"/><defs><filter id="A" x="0" y="0" width="72" height="72" filterUnits="userSpaceOnUse" color-interpolation-filters="sRGB"><feFlood flood-opacity="0" result="A"/><feColorMatrix in="SourceAlpha" values="0 0 0 0 0 0 0 0 0 0 0 0 0 0 0 0 0 0 127 0"/><feOffset dy="2"/><feGaussianBlur stdDeviation="4"/><feColorMatrix values="0 0 0 0 0 0 0 0 0 0 0 0 0 0 0 0 0 0 0.1 0"/><feBlend in2="A"/><feBlend in="SourceGraphic"/></filter></defs></svg>