<?xml version="1.0" encoding="UTF-8"?> <!-- Generator: Adobe Illustrator 25.0.1, SVG Export Plug-In . SVG Version: 6.00 Build 0) --> <svg xmlns="http://www.w3.org/2000/svg" xmlns:xlink="http://www.w3.org/1999/xlink" id="Слой_1" x="0px" y="0px" viewBox="0 0 841.9 217.8" style="enable-background:new 0 0 841.9 217.8;" xml:space="preserve"> <style type="text/css"> .st0{fill:#1D3B6B;} .st1{fill:#009EB0;} </style> <g> <g> <path class="st0" d="M9.5,170.9l13.7-22.4c1.8,3.5,4,6.2,6.4,8.1c2.4,1.9,5,2.9,7.5,2.9c1.3,0,2.6-0.4,3.7-1.2 c1.2-0.8,1.9-1.7,2.2-2.8c0.5-1.7-1.3-3.5-5.2-5.5c-1.5-0.8-2.7-1.4-3.5-1.8c-5.2-2.8-8.5-5.7-10-8.6c-1.5-2.9-1.6-6.5-0.5-10.9 c1.8-6.7,6-12,12.4-15.8c6.5-3.8,14.5-5.8,24.1-5.8c4.9,0,9.6,0.4,14.2,1.2c4.6,0.8,9.1,2.1,13.4,3.7l-13.6,21 c-1.5-3.3-3.5-5.9-6-7.8c-2.5-1.9-5.1-2.8-7.8-2.8c-1.5,0-2.7,0.3-3.7,1c-1,0.6-1.7,1.5-2,2.5c-0.6,2.2,1.8,4.5,7.1,6.9 c1.5,0.7,2.7,1.2,3.6,1.7c5.7,2.7,9.4,5.6,11.1,8.6c1.7,3,1.9,6.8,0.7,11.3c-1.9,7.1-6.3,12.5-13.1,16.3 c-6.8,3.8-15.7,5.6-26.6,5.6c-5.5,0-10.6-0.5-15.2-1.4C17.7,174.1,13.4,172.7,9.5,170.9z"></path> <path class="st0" d="M81.2,175.2l18.3-67H155l-4.5,16.6h-25.5l-2.2,8.1h17.8l-4.5,16.6h-17.8l-2.2,8.2h25.5l-4.8,17.5H81.2z"></path> <path class="st0" d="M140.9,175.2l42.4-67h40.4l6.5,67h-30.5l-0.6-11.6h-21.2l-6.8,11.6H140.9z M187.7,148h10.3l-0.8-15.9 L187.7,148z"></path> </g> <g> <path class="st1" d="M394.5,175.2l18.2-67h43.2c7.7,0,13.3,1.6,16.8,4.8c3.5,3.2,4.5,7.6,3,13.2c-0.8,3.1-2.3,5.9-4.4,8.4 c-2.1,2.5-4.8,4.6-8.1,6.4c2.8,1.8,4.8,4,5.8,6.5c1,2.6,1.2,5.4,0.3,8.4c-0.9,3.3-2.4,6.2-4.4,8.7c-2,2.5-4.6,4.6-7.7,6.4 c-2.7,1.5-5.6,2.5-8.7,3.2c-3.1,0.6-7.9,0.9-14.3,0.9H432H394.5z M431,145.7l-3.8,13.9h0.9c3,0,5.5-0.6,7.4-1.8 c1.9-1.2,3.2-3,3.8-5.3c0.6-2.1,0.2-3.8-1.1-5s-3.4-1.8-6.4-1.8H431z M437.6,121.7l-3.4,12.5h0.9c2.7,0,4.9-0.6,6.7-1.7 c1.8-1.1,2.9-2.7,3.5-4.8c0.5-2,0.2-3.5-0.9-4.5c-1.2-1.1-3.1-1.6-5.8-1.6H437.6z"></path> <path class="st1" d="M502.8,175.2h-30l18.2-67h42.2c5.8,0,10,0.5,12.9,1.4c2.8,0.9,5,2.4,6.7,4.6c1.3,1.7,2.2,3.8,2.5,6.1 c0.3,2.3,0.1,4.8-0.6,7.4c-0.8,3-2.3,5.9-4.4,8.5c-2.1,2.6-4.6,4.9-7.6,6.6c2.2,4.2,3.6,9.1,4.1,14.5s0.2,11.5-1,18h-31.1 c2.2-8.1,2.9-14.4,2.1-18.7c-0.8-4.3-3.1-6.7-7-7.2L502.8,175.2z M517.5,121.2l-3.4,12.5h0.9c2.7,0,5-0.5,6.7-1.6 c1.7-1.1,2.9-2.7,3.4-4.7c0.5-2,0.2-3.5-1-4.6c-1.2-1.1-3.1-1.6-5.8-1.6H517.5z"></path> <path class="st1" d="M554.3,175.2l18.2-67H628l-4.5,16.6H598l-2.2,8.1h17.8l-4.5,16.6h-17.8l-2.2,8.2h25.5l-4.8,17.5H554.3z"></path> <path class="st1" d="M619.3,175.2l18.2-67h55.5l-4.5,16.6H663l-2.2,8.1h17.8l-4.5,16.6h-17.8l-2.2,8.2h25.5l-4.8,17.5H619.3z"></path> <path class="st1" d="M750.5,175.2h-70.9l44.9-50.3h-28.4l4.6-16.8H771l-44.5,49.4h28.9L750.5,175.2z"></path> <path class="st1" d="M758.6,175.2l18.3-67h55.5l-4.5,16.6h-25.5l-2.2,8.1H818l-4.5,16.6h-17.8l-2.2,8.2h25.5l-4.8,17.5H758.6z"></path> </g> <path class="st0" d="M308.8,55c0,0,33.1,58.7,0,111.4c0,0,27.8-11.9,64.9-7.7C373.8,158.7,380.9,115.6,308.8,55z"></path> <g> <path class="st1" d="M311,170.9l-15.3,6.5l8.5-13.5c17.3-27.5,15.5-57.1,10.4-78.1c-16.3-22-39.1-46.7-70.9-73.4 c0,0,56.9,103,0,193.5c0,0,47.6-22.7,111.4-15.5c0,0,1.6-9.9-2.3-27.5C328.2,163.7,311.2,170.8,311,170.9z"></path> </g> </g> </svg> 