<svg xmlns="http://www.w3.org/2000/svg" width="208" height="66" fill="none"  xmlns:v="https://vecta.io/nano"><path d="M40.375 64.251c-2.048.949-5.546 1.649-10.193 1.649-10.293 0-17.188-6.296-17.188-16.488 0-8.694 3.897-15.489 9.793-19.436 4.047-2.748 8.744-4.097 14.24-4.097 4.197 0 7.395.999 8.544 1.599l-2.298 6.745c-1.099-.5-3.697-1.249-7.045-1.249s-6.495 1.049-8.894 2.998c-3.248 2.698-5.346 7.095-5.346 12.491 0 6.146 3.498 10.343 10.293 10.343 2.748 0 5.496-.45 7.395-1.249l.7 6.695zm30.829-16.138C71.204 58.455 64.109 66 54.365 66c-7.145 0-11.942-4.647-11.942-11.692 0-9.743 6.795-17.837 16.838-17.837 7.545 0 11.942 5.196 11.942 11.642zm-20.186 6.046c0 3.298 1.599 5.496 4.547 5.496 4.447 0 7.045-6.695 7.045-11.492 0-2.598-1.149-5.346-4.447-5.346-4.797 0-7.145 6.995-7.145 11.342zm20.885 11.192L75.5 46.314l1.549-9.144h7.345l-.5 4.647h.1c2.648-3.647 6.096-5.296 9.843-5.296 4.597 0 7.245 2.848 7.245 7.745 0 1.249-.25 3.348-.45 4.747L97.535 65.4h-8.344l2.998-15.639c.15-.999.3-2.049.3-3.098 0-1.999-.7-3.398-2.848-3.398-2.698 0-5.896 3.398-7.045 9.643L80.247 65.4h-8.344v-.05z" fill="#008755"/><path d="M120.868 27.127c2.748-.6 6.396-.899 10.193-.899 4.097 0 7.045.5 9.643 1.999 2.598 1.349 4.497 3.847 4.497 7.145 0 4.896-3.597 7.994-7.844 9.243v.15c3.747 1.149 6.095 4.197 6.095 8.494 0 4.197-2.248 7.195-5.296 9.243-3.298 2.249-8.194 3.148-14.64 3.148-4.396 0-7.894-.3-9.793-.7l7.145-37.823zm2.099 31.877c.999.1 1.948.1 3.198.1 4.496 0 8.593-1.799 8.593-6.096 0-3.847-3.247-4.996-7.094-4.996h-2.599l-2.098 10.992zm3.347-17.038h2.749c4.546 0 7.644-1.949 7.644-5.296 0-2.748-2.248-3.997-5.396-3.997-1.449 0-2.648.1-3.298.25l-1.699 9.044zm19.037 23.385l3.198-16.788c.799-4.247 1.149-8.994 1.449-11.442h7.195l-.5 5.746h.15c1.999-3.747 5.146-6.395 8.994-6.395.499 0 1.049 0 1.548.05l-1.598 8.094c-.4-.05-.85-.05-1.349-.05-5.297 0-7.795 4.747-8.794 10.243l-1.949 10.493h-8.344v.05zm19.036 0l5.347-28.18h8.294l-5.346 28.18h-8.295zm10.493-31.678c-2.298 0-3.997-1.599-3.997-4.047 0-2.848 2.248-4.747 4.796-4.747 2.499 0 4.197 1.599 4.197 4.097 0 2.948-2.248 4.647-4.896 4.647h-.1v.05zm32.527 14.44c0 10.343-7.095 17.887-16.838 17.887-7.145 0-11.942-4.647-11.942-11.692 0-9.743 6.796-17.837 16.839-17.837 7.544 0 11.941 5.196 11.941 11.642zm-20.186 6.046c0 3.298 1.599 5.496 4.547 5.496 4.447 0 7.045-6.695 7.045-11.492 0-2.598-1.149-5.346-4.447-5.346-4.796 0-7.145 6.995-7.145 11.342z" fill="#e31e2d"/><path d="M27.035.896c1.249.2 2.998.1 4.597-.15.749-.15 1.449-.5 2.148-.7.45-.15 1.149.1 1.549.2l1.449.3c1.999.45 3.947 1.499 6.495 1.949 1.349.5 2.448.999 3.048 1.999.3.45.45.949.55 1.649.1.55.25 1.099.2 1.599 0 .25-.05.5-.05.749-.05 1.449-.4 2.498-1.199 3.148-.3.25-.849.5-.999.899-.05.25-.05.55-.05.799-.15.749-.35 1.399-.599 2.098-.3.899-.75 1.849-.75 2.948 0 .799.55 1.299.7 1.899.05.25.05.7.15.899.1.25.25.45.35.749.1.25.15.6.2.949.2 1.549.55 2.898.849 4.297 0 .1.2.75.05.849-.3.25-.5-.1-.55-.1-.4-.35-.899-.649-1.349-.799-1.749-.7-3.997-.8-6.545-.8-.5 0-1.049-.1-1.499-.05-.25 0-.5.1-.749.1l-2.148.1-1.449.25c-.25.05-.45 0-.649.05l-.65.15c-2.498.749-4.797 1.799-6.745 3.048-.65.45-1.349.849-1.849 1.349-.25.25-.45.6-.7.799-.25.25-.55.45-.849.7s-.45.5-.7.749-.35.55-.55.899c-.35.5-.75.749-1.199 1.099-.1.1-.25.1-.4.2s-.2.2-.35.25-.45-.05-.65-.1c-.45-.1-.849-.15-1.249-.3-.2-.1-.35-.25-.55-.25-.25-.05-.55.05-.7 0-.2-.05-.55-.5-.6-.7-.1-.35 0-.649-.1-.899-.4-.999-2.248-1.199-3.597-1.299l-2.698-.25c-.3-.05-.7 0-.949-.1-.15-.05-.45-.45-.65-.65a6.49 6.49 0 0 1-.6-.7l-1.249-1.449-1.249-1.549c-.5-.5-1.149-.899-1.499-1.449-.2-.3-.45-.799-.45-1.149-.05-.65.4-.949.6-1.399.15-.3.15-.649.3-.899.15-.35.5-.55.7-.849.6-.899.949-1.899 1.349-3.048.4-1.049.949-2.049 1.249-3.098a8.57 8.57 0 0 0 .2-1.199c.05-.35.35-.6.45-.949.15-.55.2-1.149.35-1.699C6 9.44 7.299 7.192 8.997 5.443c.65-.65 1.449-1.599 2.448-1.799.45-.1.949-.05 1.399-.15l1.349-.3 2.848-.5c1.599-.45 3.198-.799 4.397-1.649.15-.1.35-.3.55-.35s.55-.05.799-.1c.25 0 .55-.05.799-.05.5 0 1.199-.15 1.599-.1.5-.1 1.099.3 1.849.45zm-3.248-.15s0-.05 0 0c-1.649 0-2.498 1.149-3.647 1.849-.55.35-1.199.55-1.899.799-1.199.4-2.548.7-3.847.749-.55 0-1.049-.15-1.599-.15-.7 0-1.199.35-1.699.7-.749.5-1.249 1.099-1.849 1.699-.3.3-.699.55-.899.849-.15.25-.25.65-.35.949l-.3.7c-.25.4-.55.6-.7.949-.25.55-.35 1.399-.55 2.049-1.249 4.497-2.998 8.594-4.847 12.791-.15.3-.4.749-.35.949.05.4.55.65.799 1.099.1.15.2.4.3.55.2.35.65.599.899.899L4.9 29.976c.2.25.55.7.849.799.4.2 1.199.15 1.749.25 1.149.2 1.949.4 3.098.55.25.05.5.05.8.05.3.05.949.25 1.099.15.15-.2-.15-1.649-.2-1.999 0-.35.05-.649 0-.999-.05-.25 0-.7-.15-.799s-1.099-.2-1.349-.2c-.7 0-1.649 0-2.848.15-.25.1-.5.15-.55.25-.1.15.2.45.35.55.3.2.55.4.7.5.25.15.849.2 1.149.3.15.05.849.25.899.5.05.2-.45.3-.749.3-.749-.05-1.099-.4-1.749-.649s-1.299-.55-1.599-1.199c-.25-.55-.15-1.449.3-1.749.35-.2.949-.1 1.449-.1.899-.05 2.298-.15 3.348.05.3.1 1.249.1 1.449.2.1.05.1.25.1.35-.05.55.05 1.299.15 2.049.1 1.999.849 3.447 1.099 4.747.05.25.1.6.3.7.15.1.4.15.55.2.4.1.849.15 1.249-.1.4-.2.7-.6.949-.949.35-.4.749-.649.949-.949.1-.15.2-.5.25-.6.1-.15.45-.3.65-.45.599-.45 1.249-1.049 1.799-1.499.849-.749 1.799-1.299 2.798-1.849 2.948-1.649 6.545-3.048 10.842-3.198 3.747-.3 6.695-.05 9.443.65.1 0 .25.1.35 0s.05-1.049.05-1.249c-.2-2.049-1.049-3.448-1.599-5.546a9.61 9.61 0 0 1-.25-1.449c-.05-.5-.05-1.199-.25-1.599-.1-.2-.4-.4-.65-.55-.649-.5-1.449-.999-2.248-1.249-.75-.25-1.699-.7-2.448-.999-.25-.1-.55-.2-.7-.4-.15-.25-.2-.899-.05-1.149.25-.3.949-.25 1.099-.5.1-.15.05-.8.05-.899.05-.3.25-.899.35-1.149.05-.2.35-.949.5-.999.2-.05.3.25.35.5.05.2.15.65.25.65.25.1.7-.749.8-.949.2-.35.5-.849.55-1.249.1-.849-.35-2.548.55-2.798.65-.2.849.699.7 1.399-.15.899-1.099 2.498-1.649 3.448-.25.4-.45.999-.599 1.149-.15.1-.7.05-.849.2-.35.2-.6 1.449-.4 1.899.15.4.849.65 1.249.8.849.4 1.849.849 2.648 1.449.15.15.999.749 1.299.6.2-.1.25-.849.3-1.099.2-2.198-.5-5.196.649-6.445.1-.15.4-.35.6-.4.25-.05.749.1.799.35s-.35.799-.5 1.099c-.3.6-.55 1.049-.2 1.749.05.1.15.4.35.4.45.1.7-.75.749-1.049.25-1.249.25-2.848 0-4.397-.05-.3-.05-.699-.15-.849-.1-.2-.5-.35-.749-.5-.3-.15-.6-.35-.8-.45-.649-.3-1.049-.699-1.549-.949-.35-.15-.7-.25-1.099-.35-1.849-.4-3.298-.899-4.896-1.349-.6-.15-1.349-.4-1.849-.4-.65.05-1.749.4-2.448.6-.849.2-1.699.4-2.248.35-.25-.05-.45-.3-.7-.3-.849-.1-1.749.5-2.448.2-.25-.1-.4-.25-.599-.4s-.45-.25-.7-.3c-.7 0-1.299-.1-1.899-.1zm2.748 3.947c-.7-.1-.949 1.649-.999 2.448-.05.849.1 2.099.35 2.648.1.2.4.6.5.5.1-.05.1-.949.1-1.299.1-1.099.1-1.599.25-2.548.15-.65.5-1.649-.2-1.749zm-6.795.999c-.3.05.1.749.25.949.45.799 1.249 1.499 1.599 2.398.2.5.35 1.149.55 1.749.4 1.199.749 2.099 1.299 2.998.25.35.649 1.049.899 1.049.4-.05.25-.8.15-1.299-.05-.15-.25-.649-.1-.799.15-.2.5.649.6.849s.3.999.55.999c.1 0 .3-.35.3-.55 0-.3-.2-.5-.25-.649-.1-.2-.2-.45-.25-.7-.15-.45-.4-.899-.5-1.399-.3-1.749 0-3.647-.8-4.547-.1-.1-.1-.15-.2-.15-.15.05-.25 1.049-.3 1.399-.1 1.049-.05 2.398 0 3.547 0 .3.1.649 0 .749-.15.1-.45-.65-.45-.6-.35-.749-.6-1.849-.899-2.648-.599-1.599-1.249-2.798-2.298-3.298l-.15-.05zm12.441-.749c-.25 0-.5.4-.7.7-.999 1.199-1.799 2.548-2.298 4.147-.25.799-.7 1.349-.849 2.148-.05.15-.05 1.049.1 1.149.2.1.5-.649.6-.799 1.099-1.899 2.348-3.348 3.348-5.546.15-.35.4-.849.4-1.199-.05-.3-.5-.6-.599-.6zm4.297-.799c-.15 0-.799.7-.799 1.099 0 .3.25.25.35.45.15.25.25.6.3 1.099.1.699-.15 2.049.2 2.099.25 0 .7-.799.75-1.049.25-.899-.05-1.799-.25-2.548-.15-.5-.3-1.149-.55-1.149zm-22.584 6.545c-.4-.05-.899.1-.899.45 0 .25.35.75.45.849.15.15.35.2.55.35.2.1.4.3.6.5.15.2.6.749.55.949-.05.15-.55-.25-.7-.35-.55-.45-.799-.65-1.399-.949-.2-.1-.7-.45-.75-.2s.55.55.6.649c.35.3.849.849 1.299 1.349 1.049 1.099 2.049 2.248 2.948 3.697.1.15.35.799.5.849s.35-.2.45-.3c.15-.1.35-.25.5-.3s.3 0 .35-.1c.1-.3-.45-1.449-.55-1.649-.5-.899-1.099-1.449-1.699-2.248-.2-.2-.849-.949-.799-1.199s.5 0 .65.1c.55.35.699.6 1.199.999.1.1.55.4.6.3.1-.1-.1-.7-.2-.899-.2-.3-.699-.6-1.049-.949-.15-.2-.3-.5-.45-.55-.25-.15-.5-.1-.749-.25-.6-.4-1.199-.999-1.999-1.099zm-4.247 1.199c-.2 0-.6 0-.849.15s-.55.45-.5.649c.05.35.6.75.799.899.35.2.799.35 1.249.4.65.1 1.449-.05 1.949.2.35.15.849.65 1.199.999.999.999 1.699 1.899 2.598 3.098.15.15.4.6.5.3.1-.2-.4-.749-.55-.999-.7-.899-1.449-1.849-2.199-2.598-.5-.5-1.099-.999-1.649-1.549-.749-.7-1.499-1.399-2.548-1.549zm22.834-.8c-.15 0-.949.749-.999.949-.05.35.1 1.199.25 1.249.2.05.649-.25.749-.4.15-.2.3-.6.3-.999 0-.3-.05-.75-.3-.8zm2.049-.25c-.05 0 0 0 0 0-1.099.3-.65 2.448.2 2.398.3-.05.7-.35.749-.6 0-.35-.749-1.749-.949-1.799zm-12.541 2.498c-.1 0-.3-.05-.35.2 0 .15.25.55.35.7.3.45.5.749.899 1.049.15.1.45.35.55.2s-.05-.649-.1-.849c-.3-.799-.749-1.299-1.349-1.299zm8.944-.849c-.55-.2-.2 1.049.15.5.1-.2 0-.45-.15-.5zm-4.597.949c-.35-.05-.3.749 0 .749.25 0 .35-.7 0-.749zm-6.445 1.149c-.15-.05-.4.2-.35.5.05.649.6 2.048.849 2.098s.6-.4.849-.5c.15-.1.35-.05.6-.15.15-.05.4-.35.3-.55-.1-.25-.5.05-.7.1-.55.15-.7-.1-.999-.6-.15-.35-.4-.849-.55-.899zm-9.294.4c-.05 0-.649-.1-.649.1 0 .25.75.749.849.799.55.3.949.35 1.649.799.3.2.749.5 1.049.899.1.1.3.3.3.4 0 .15-.3.05-.4 0-1.399-.3-2.848-.899-4.547-.799-.5.05-.999.25-1.199.55-.15.2-.3.7-.15.949.1.2 1.199.25 1.449.35 1.199.4 1.999.949 2.898 1.699.25.15.7.4.3.55-.55.25-1.449-.25-2.049-.35-1.199-.15-2.548-.05-3.797.1-.3.05-1.049.05-1.149.25-.05.1.05.6.05.749-.1.4-.5.5-.849.7-.1.05-.25.15-.25.2 0 .3.999.7 1.399.849.55.25 1.099.55 1.599.799a18.74 18.74 0 0 0 3.997.999c.4 0 .949-.05 1.349-.15.15 0 .55-.15.55-.35 0-.25-.4-.5-.7-.5-.35-.05-.749.15-1.049.2s-.7 0-1.049-.05c-1.049-.15-2.148-.45-3.098-.849-.3-.1-.899-.3-.899-.5 0-.15.6-.25.799-.25 1.349-.1 2.198.699 3.398.699.2 0 .6-.05.649-.2.05-.2-.4-.55-.55-.649-.45-.25-1.149-.3-1.749-.5-.15-.05-.5-.15-.5-.25-.05-.2.65-.25.749-.25 1.999-.15 3.448.45 5.146.7.25.05.699.15.8 0 .1-.2-.2-.899-.3-1.049-.45-.65-1.399-.999-2.149-1.449-.25-.15-.649-.35-.649-.6-.05-.25.3-.3.7-.25 1.049.2 1.899 1.049 2.848 1.199.4.05.849-.15.849-.599 0-.2-.15-.5-.3-.7-.3-.4-.949-.799-1.249-1.249-.1-.15-.25-.45-.3-.5-.1-.1-.3-.15-.4-.25-.2-.15-.45-.4-.649-.6-.3-.25-.7-.45-1.049-.7-.649-.4-.999-.849-1.699-.949zM7.299 25.129c-1.099-.45-3.448-1.049-3.098.35 0 .25.05.7.15.799.1.05.35 0 .45.05.849-.3 2.148-.35 2.798-.3.2-.05.35-.55.15-.7s-.3-.05-.45-.2zm7.795.799c-.15-.05-.4.45-.55.65-.15.25-.35.4-.4.599-.05.1-.1.4-.05.5.1.15.45-.4.5-.5.25-.3.45-.5.55-.749.05-.15.15-.45-.05-.5zm1.249 1.349c-.2-.15-.5.45-.45.599.1.3.65-.4.45-.599zm-1.649 1.599c-.1-.05-.4.2-.4.35-.1.45.7.25.45-.35 0 0-.05.05-.05 0zm.899 2.648c-.25-.15-.35.5-.2.649.05.05.25.05.3-.1.05-.2 0-.5-.1-.55z" fill="#000"/></svg>