<svg xmlns="http://www.w3.org/2000/svg" width="56" height="56" fill="none"  xmlns:v="https://vecta.io/nano"><path d="M.76294 15.9852C1.68389 7.95795 7.96217 1.71841 15.9892.795197 19.8927.346234 24.1509 0 28 0s8.1073.346234 12.0108.795198c8.027.923212 14.3053 7.162752 15.2263 15.190002.4331 3.7757.7629 7.8976.7629 11.6966 0 3.9079-.3489 8.2368-.8004 12.2024-.9212 8.0902-7.2232 14.4107-15.3131 15.3349C36.017 55.6611 31.8083 56 28 56s-8.017-.3389-11.8865-.7809C8.02361 54.2949 1.72157 47.9744.800446 39.8842.348935 35.9186 0 31.5897 0 27.6818c0-3.799.329756-7.9209.76294-11.6966z" fill="#fff"/><g fill="#595675"><path fill-rule="evenodd" d="M23.3756 15.9158c2.9131-1.6927 6.4939-1.6631 9.3797.0775 2.8574 1.776 4.5941 4.9457 4.5779 8.3554-.0665 3.3873-1.9287 6.5714-4.2565 9.0328-1.3435 1.4271-2.8465 2.689-4.4782 3.76-.168.0971-.3521.1622-.5431.1919-.1839-.0078-.3629-.0621-.521-.1581-2.4911-1.6091-4.6765-3.6632-6.4512-6.0633-1.485-2.0034-2.3287-4.4239-2.4165-6.9327-.0019-3.4162 1.7957-6.5709 4.7089-8.2635zm1.6834 9.6773c.49 1.2081 1.6467 1.9961 2.9299 1.9961.8406.006 1.6488-.3307 2.2443-.9352s.9289-1.4264.9259-2.2827c.0045-1.3072-.7651-2.4881-1.9493-2.9915s-2.5497-.2299-3.4586.6927-1.1823 2.3125-.6922 3.5206z"/><ellipse opacity=".4" cx="28.0002" cy="40.0001" rx="6.66667" ry="1.33333"/></g></svg>