<svg xmlns="http://www.w3.org/2000/svg" viewBox="0 0 750 179"  xmlns:v="https://vecta.io/nano"><path d="M.1 75.6L0 3.1C0 .6.6 0 3.1 0L77 .1c-.4 2.8-2.9 2.2-4.6 2.7-11.9 3.2-22 9.3-29.7 18.9-8 10-10.8 21.6-8.9 34.1 2.9 19 12.3 35.1 24.1 51 2.1-8 3.6-15.4 5.9-22.5 8.4-25.8 21.4-48.4 44.9-63.7 6.2-4.1 13-7.2 20.9-9.7-7.7-4.4-15.4-6.2-23-8.2-1.7-.4-4.2.1-4.6-2.7l643.5-.1c3.7 0 4.6.8 4.6 4.6v170.4c0 3.4-.7 4.1-4.1 4.1-247.3-.1-494.5-.1-741.8 0-3.4 0-4.1-.7-4.1-4.1l.1-72.5c3.2.8 2.7 3.8 3.3 5.9 3.1 12.4 8.1 23.7 15.9 33.9 29.9 39.2 87.6 46.3 125.7 14.9 21.6-17.8 32.9-40.9 32.4-69-.2-11.7-2.9-23.1-9.3-33.1-12.2-19-32.7-22.2-50.7-8.5-14.3 11-23.8 25.7-32.2 41.2-6.4 11.8-11.7 24.2-16.3 36.8-3.1 8.5-4.8 8.9-10.7 2.3-17.4-19.3-31.4-40.6-38.4-66-1.8-6.5-3.3-13.1-3.2-20.8-4.1 4.2-5.8 8.8-7.8 13.2C6.3 58.9 4.5 65 3 71.1c-.4 1.7-.2 4.1-2.9 4.5z" fill="#fefefe"/><path d="M.1 75.6c1.9-1.5 1.5-3.8 2-5.8C4.8 58 9.4 47.1 17.2 36.6c2.8 38.5 21.7 68.1 47 94.5 2.1-1.1 2-3.1 2.6-4.7 9.2-24 19.4-47.4 36-67.5 6.3-7.6 13.4-14.3 22.5-18.5 15.1-7.1 30.9-3.5 40.9 9.8 10.5 14 14 30.4 12.2 47.4-4.3 40.3-32.2 70.5-71.7 78.7-46.9 9.8-94.8-21.4-104.6-68.2-.4-2-.1-4.3-2-5.8V75.6zM101.9.1l14 3.9c5.7 1.7 11.2 3.9 17.1 7.4-15.2 3.8-27.6 11.2-38.2 21.7C77.5 50.3 68 71.7 62.1 94.9c-1.2 4.6-2.1 9.3-3.2 14 0 .1-.2.1-.8.3-12.3-16.6-23.3-34-25.8-55.3C29.4 29 47.8 6.1 74 1.2c1-.2 2.4.5 3-1.1h24.9zm647.1 147h-38.6c-2 0-2.9-1.4-3.9-2.6l-31.1-34.9-6.5-7v17.2c0 7.8-.2 15.6.1 23.3.1 3.3-1 4.2-4.2 4.1-9-.2-18-.3-26.9 0-3.9.1-4.6-1.1-4.6-4.7l.1-102.8c0-2 .1-4 0-6-.1-2.2.7-2.9 2.9-2.9h29.9c3.2 0 2.8 1.9 2.8 3.9v40.9l14.7-16.3 23.2-26c1.1-1.3 2.1-2.4 4.1-2.4h38.4l-21.2 23.9L701 85.2c-2.7 2.9-3 4.4-.2 7.5l44.7 50.1c.9 1.2 1.9 2.4 3.5 4.3zM214.3 30.9l37.7-.1c2.8 0 3.1 1.9 3.9 3.6l27.7 61.9c.7 1.6 1.1 3.4 2.7 4.8l29.2-65.7c1.6-3.6 3.4-4.8 7.3-4.7 11.5.3 22.9.1 34.3.1.7 1.9-.4 3.1-1 4.4L308 142.8c-1.4 3.1-3 4.4-6.6 4.3-10.6-.3-21.3-.2-31.9 0-2.7 0-4.1-.7-5.2-3.2L215.4 34.4c-.3-1-.6-2.1-1.1-3.5zm316.4 57.8l-.1-53.6c0-3.1.7-4.2 4.1-4.2h84.4c3.1 0 4.4.6 4.2 4-.3 5.6-.3 11.3 0 16.9.2 3.4-1 4.1-4.2 4.1-16-.1-31.9.1-47.9-.2-3.9-.1-5.3.9-5 4.9.4 4.4.3 8.9 0 13.4-.2 3.3 1 4.2 4.3 4.2l36.4-.2c3.7-.1 5 .9 4.8 4.7a92.56 92.56 0 0 0 0 12.9c.2 3.4-.9 4.6-4.4 4.5-12.1-.2-24.3 0-36.4-.1-3.4 0-4.8.7-4.6 4.4a107.45 107.45 0 0 1 0 13.9c-.2 3.2.8 4.2 4.1 4.2l48.4-.2c3.3 0 4.7.6 4.5 4.3-.3 5.8-.2 11.6 0 17.4.1 2.7-.8 3.3-3.4 3.3-28.6-.1-57.2-.1-85.9 0-3.8 0-3.4-2-3.4-4.4l.1-54.2zm-63.1-57.8l48.9-.1c3.5 0 4.6.9 4.4 4.4a140.56 140.56 0 0 0 0 15.9c.2 3.6-.7 4.9-4.6 4.8-8.6-.3-17.3.1-25.9-.2-3.9-.1-5 .9-5 4.9l.2 81.4c0 4.5-1.3 5.5-5.5 5.3-8.6-.3-17.3-.3-25.9 0-3.5.1-4.4-1-4.4-4.4L450 61c0-4-.8-5.4-5.1-5.3-9.1.4-18.3 0-27.4.2-3.1.1-4-.9-3.9-3.9.2-5.6.2-11.3 0-16.9-.1-3.2.8-4.2 4.1-4.2h49.9zm-64 58.6l.1 53.6c0 3.3-.9 4.2-4.2 4.1a648.75 648.75 0 0 0-27.9 0c-2.8 0-3.7-.7-3.7-3.6V34.4c0-2.9.9-3.6 3.7-3.6a648.75 648.75 0 0 0 27.9 0c3.2-.1 4.2.8 4.2 4.1l-.1 54.6z" fill="#0073ba"/></svg>