<svg width="56" height="56" viewBox="0 0 56 56" fill="none" xmlns="http://www.w3.org/2000/svg">
<path d="M0.76294 15.9852C1.68389 7.95795 7.96217 1.71841 15.9892 0.795197C19.8927 0.346234 24.1509 0 28 0C31.8491 0 36.1073 0.346234 40.0108 0.795198C48.0378 1.71841 54.3161 7.95795 55.2371 15.9852C55.6702 19.7609 56 23.8828 56 27.6818C56 31.5897 55.6511 35.9186 55.1996 39.8842C54.2784 47.9744 47.9764 54.2949 39.8865 55.2191C36.017 55.6611 31.8083 56 28 56C24.1917 56 19.983 55.6611 16.1135 55.2191C8.02361 54.2949 1.72157 47.9744 0.800446 39.8842C0.348935 35.9186 0 31.5897 0 27.6818C0 23.8828 0.329756 19.7609 0.76294 15.9852Z" fill="white"/>
<path d="M28.1154 41.3334C27.9503 41.3334 27.7852 41.2955 27.6362 41.2184L22.8347 38.7329C21.4723 38.0269 20.4065 37.2346 19.5743 36.3115C17.7527 34.2928 16.7393 31.7014 16.7232 29.0133L16.6668 20.1658C16.6601 19.1446 17.3192 18.2281 18.3044 17.883L27.1208 14.8091C27.6443 14.6222 28.2282 14.6196 28.7611 14.8L37.6109 17.7692C38.6016 18.1 39.2714 19.01 39.2768 20.0298L39.3331 28.8839C39.3506 31.5681 38.372 34.1699 36.5787 36.2108C35.7559 37.147 34.6995 37.951 33.3504 38.6701L28.5919 41.2118C28.4443 41.2916 28.2805 41.3321 28.1154 41.3334" fill="#595675"/>
<path d="M27.0923 31.0946C26.8346 31.0959 26.5769 31.003 26.3782 30.8121L23.8224 28.3541C23.4278 27.9724 23.4238 27.3526 23.8144 26.9682C24.205 26.5825 24.8426 26.5786 25.2386 26.9591L27.0776 28.7268L31.5676 24.2997C31.9596 23.914 32.5972 23.9101 32.9918 24.2906C33.3878 24.6723 33.3918 25.2934 33.0012 25.6765L27.8024 30.803C27.6064 30.9965 27.35 31.0932 27.0923 31.0946" fill="#BDBBC8"/>
</svg>
