<svg width="56" height="56" viewBox="0 0 56 56" fill="none" xmlns="http://www.w3.org/2000/svg">
<path d="M0.76294 15.9852C1.68389 7.95795 7.96217 1.71841 15.9892 0.795197C19.8927 0.346234 24.1509 0 28 0C31.8491 0 36.1073 0.346234 40.0108 0.795198C48.0378 1.71841 54.3161 7.95795 55.2371 15.9852C55.6702 19.7609 56 23.8828 56 27.6818C56 31.5897 55.6511 35.9186 55.1996 39.8842C54.2784 47.9744 47.9764 54.2949 39.8865 55.2191C36.017 55.6611 31.8083 56 28 56C24.1917 56 19.983 55.6611 16.1135 55.2191C8.02361 54.2949 1.72157 47.9744 0.800446 39.8842C0.348935 35.9186 0 31.5897 0 27.6818C0 23.8828 0.329756 19.7609 0.76294 15.9852Z" fill="white"/>
<path opacity="0.4" d="M27.7014 41.1166C24.6573 39.2364 21.8276 37.0194 19.2639 34.5061C17.4541 32.7117 16.0719 30.5206 15.223 28.1004C13.7061 23.3803 15.4718 17.986 20.4016 16.3845C23.0036 15.5674 25.8335 16.069 28.0095 17.7331C30.1863 16.0709 33.0153 15.5694 35.6174 16.3845C40.5471 17.986 42.3247 23.3803 40.8078 28.1004C39.9658 30.5183 38.5918 32.7092 36.7906 34.5061C34.2246 37.0166 31.3952 39.2334 28.3531 41.1166L28.0213 41.3333L27.7014 41.1166Z" fill="#595675"/>
<path d="M28.0146 41.3333L27.7014 41.1166C24.6536 39.2365 21.8199 37.0195 19.2521 34.5061C17.4337 32.7141 16.0433 30.5229 15.1874 28.1003C13.6824 23.3803 15.4481 17.9859 20.3779 16.3845C22.9799 15.5673 25.8471 16.0694 28.0146 17.7474V41.3333Z" fill="#595675"/>
<path d="M36.3074 25.3323C36.0396 25.3151 35.7902 25.1812 35.6176 24.9621C35.445 24.743 35.3644 24.4579 35.3947 24.1735C35.4237 23.2371 34.8908 22.3847 34.0691 22.053C33.5481 21.9108 33.2325 21.3465 33.3629 20.79C33.4866 20.2424 33.9993 19.902 34.5146 20.0252C34.5797 20.036 34.6423 20.0596 34.6993 20.0947C36.3469 20.7288 37.4137 22.4352 37.3288 24.301C37.3261 24.5838 37.2158 24.8533 37.0233 25.0477C36.8307 25.2422 36.5723 25.3449 36.3074 25.3323Z" fill="#595675"/>
</svg>
