<svg width="56" height="56" viewBox="0 0 56 56" fill="none" xmlns="http://www.w3.org/2000/svg">
<path d="M0.76294 15.9852C1.68389 7.95795 7.96217 1.71841 15.9892 0.795197C19.8927 0.346234 24.1509 0 28 0C31.8491 0 36.1073 0.346234 40.0108 0.795198C48.0378 1.71841 54.3161 7.95795 55.2371 15.9852C55.6702 19.7609 56 23.8828 56 27.6818C56 31.5897 55.6511 35.9186 55.1996 39.8842C54.2784 47.9744 47.9764 54.2949 39.8865 55.2191C36.017 55.6611 31.8083 56 28 56C24.1917 56 19.983 55.6611 16.1135 55.2191C8.02361 54.2949 1.72157 47.9744 0.800446 39.8842C0.348935 35.9186 0 31.5897 0 27.6818C0 23.8828 0.329756 19.7609 0.76294 15.9852Z" fill="white"/>
<path d="M25.5371 19.4075C25.605 19.5458 25.6498 19.6938 25.6699 19.8459L26.0412 25.3658L26.2255 28.1403C26.2274 28.4256 26.2721 28.709 26.3583 28.9815C26.5809 29.5102 27.1163 29.8463 27.6988 29.8228L36.5752 29.2422C36.9596 29.2359 37.3307 29.3796 37.6071 29.6419C37.8373 29.8604 37.986 30.1462 38.0328 30.4537L38.0486 30.6404C37.6812 35.7267 33.9456 39.969 28.8699 41.0642C23.7942 42.1593 18.5892 39.8459 16.081 35.38C15.3579 34.0826 14.9063 32.6565 14.7526 31.1855C14.6884 30.75 14.6601 30.3102 14.6681 29.8702C14.6601 24.4171 18.5434 19.7028 23.9792 18.5663C24.6334 18.4644 25.2748 18.8107 25.5371 19.4075Z" fill="#595675"/>
<path opacity="0.4" d="M29.1602 14.6678C35.24 14.8225 40.3499 19.1945 41.3335 25.0831L41.3241 25.1266L41.2973 25.1898L41.301 25.3632C41.2871 25.593 41.1984 25.8141 41.0455 25.9927C40.8862 26.1788 40.6686 26.3055 40.429 26.3546L40.2828 26.3747L30.0418 27.0382C29.7011 27.0718 29.362 26.962 29.1086 26.736C28.8975 26.5477 28.7626 26.2935 28.7244 26.0197L28.037 15.7935C28.0251 15.7589 28.0251 15.7214 28.037 15.6869C28.0464 15.405 28.1705 15.1385 28.3816 14.9471C28.5926 14.7556 28.873 14.655 29.1602 14.6678Z" fill="#595675"/>
</svg>
