<svg xmlns="http://www.w3.org/2000/svg" viewBox="0 0 170.3 44.8"  fill="#353183" xmlns:v="https://vecta.io/nano"><path d="M134.5 27.4c0 23.2 35.8 23.2 35.8 0 .1-23.2-35.8-23.2-35.8 0zm9.2 0c0-12.1 17.5-12.1 17.5 0 0 12.2-17.5 12.2-17.5 0zM75.4 42.5l-14-29.9c-.7-1.3-2-2-3.4-2a4.17 4.17 0 0 0-3.5 1.9l-14 29.9c-.1.2-.2.4-.2.6a1.11 1.11 0 0 0 1.1 1.1h6.8a1.14 1.14 0 0 0 1-.7h0l1.7-3.5h13.8l1.7 3.6c.2.4.6.7 1 .7h6.9a1.11 1.11 0 0 0 1.1-1.1c.1-.2.1-.4 0-.6h0zm-21.5-9.9l3.9-8.8 4 8.8h-7.9zm58.1-4s0-.1 0 0c-.5-1.6-2-2.8-3.7-2.9h0-10.5a3.76 3.76 0 0 0-3.7 3.7c0 2 1.6 3.5 3.7 3.5h5.3c-1.6 2.8-4.1 3.9-7.5 3.9-5.3 0-8.1-3.7-8.1-9.4 0-5.2 2.9-9.4 8.5-9.4 2.9 0 4.9.9 6.9 2.9.1.1 1.1 1 2.6 1 2.2 0 4-1.8 4-4 0-1.1-.4-2.1-1.2-2.9-3.2-3.8-7.9-4.9-12.3-5-8.9 0-17.7 5.8-17.8 17.4.1 11.6 8.5 17.4 17.4 17.4 6.4 0 12.4-2.7 15.6-9.8.6-1.3.8-2.7.9-4 .2-.9-.1-2.4-.1-2.4zM29.2 13.1c-1.2 0-2.3.4-3.2 1.2h0L17.2 23c-.1-.1-8-7.7-9-8.6-.9-.8-2-1.3-3.3-1.3A4.91 4.91 0 0 0 0 18v25.1a1.11 1.11 0 0 0 1.1 1.1H8a1.11 1.11 0 0 0 1.1-1.1V27l4 3.8c1.1 1 2.3 1.7 3.8 1.7 1.4 0 2.5-.6 3.5-1.5 1-.8 4.5-4 4.5-4v16a1.11 1.11 0 0 0 1.1 1.1h6.9A1.11 1.11 0 0 0 34 43l.1-25.1c.1-2.6-2.2-4.8-4.9-4.8zm0-13.1a4.91 4.91 0 0 0-4.9 4.9 4.91 4.91 0 0 0 4.9 4.9 4.91 4.91 0 0 0 4.9-4.9C34.2 2.2 32 0 29.2 0zM4.9 9.9A4.91 4.91 0 0 0 9.8 5c.1-2.8-2.2-5-4.9-5A4.91 4.91 0 0 0 0 4.9c0 2.8 2.2 5 4.9 5zm118.5.8a4.48 4.48 0 0 0-4.5 4.5v24.5a4.5 4.5 0 1 0 9 0V15.2c-.1-2.5-2.1-4.5-4.5-4.5z"/></svg>