<svg xmlns="http://www.w3.org/2000/svg" width="56" height="56" fill="none"  xmlns:v="https://vecta.io/nano"><path d="M.76294 15.9852C1.68389 7.95795 7.96217 1.71841 15.9892.795197 19.8927.346234 24.1509 0 28 0s8.1073.346234 12.0108.795198c8.027.923212 14.3053 7.162752 15.2263 15.190002.4331 3.7757.7629 7.8976.7629 11.6966 0 3.9079-.3489 8.2368-.8004 12.2024-.9212 8.0902-7.2232 14.4107-15.3131 15.3349C36.017 55.6611 31.8083 56 28 56s-8.017-.3389-11.8865-.7809C8.02361 54.2949 1.72157 47.9744.800446 39.8842.348935 35.9186 0 31.5897 0 27.6818c0-3.799.329756-7.9209.76294-11.6966z" fill="#fff"/><g fill="#595675"><path opacity=".4" d="M27.7014 41.1166c-3.0441-1.8802-5.8738-4.0972-8.4375-6.6105-1.8098-1.7944-3.192-3.9855-4.0409-6.4057-1.5169-4.7201.2488-10.1144 5.1786-11.7159 2.602-.8171 5.4319-.3155 7.6079 1.3486 2.1768-1.6622 5.0058-2.1637 7.6079-1.3486 4.9297 1.6015 6.7073 6.9958 5.1904 11.7159-.842 2.4179-2.216 4.6088-4.0172 6.4057-2.566 2.5105-5.3954 4.7273-8.4375 6.6105l-.3318.2167-.3199-.2167z"/><path d="M28.0146 41.3333l-.3132-.2167c-3.0478-1.8801-5.8815-4.0971-8.4493-6.6105-1.8184-1.792-3.2088-3.9832-4.0647-6.4058-1.505-4.72.2607-10.1144 5.1905-11.7158 2.602-.8172 5.4692-.3151 7.6367 1.3629v23.5859zm8.2928-16.001c-.2678-.0172-.5172-.1511-.6898-.3702s-.2532-.5042-.2229-.7886c.029-.9364-.5039-1.7888-1.3256-2.1205-.521-.1422-.8366-.7065-.7062-1.263.1237-.5476.6364-.888 1.1517-.7648.0651.0108.1277.0344.1847.0695 1.6476.6341 2.7144 2.3405 2.6295 4.2063-.0027.2828-.113.5523-.3055.7467s-.451.2972-.7159.2846z"/></g></svg>