<svg width="56" height="56" viewBox="0 0 56 56" fill="none" xmlns="http://www.w3.org/2000/svg">
<path d="M28.007 0H27.993C12.5545 0 0 12.558 0 28C0 34.125 1.974 39.802 5.3305 44.4115L1.841 54.8135L12.6035 51.373C17.031 54.306 22.3125 56 28.007 56C43.4455 56 56 43.4385 56 28C56 12.5615 43.4455 0 28.007 0Z" fill="#4CAF50"/>
<path d="M44.2994 39.5396C43.6239 41.4471 40.9429 43.0291 38.8044 43.4911C37.3414 43.8026 35.4304 44.0511 28.9974 41.3841C20.7689 37.9751 15.4699 29.6136 15.0569 29.0711C14.6614 28.5286 11.7319 24.6436 11.7319 20.6256C11.7319 16.6076 13.7724 14.6511 14.5949 13.8111C15.2704 13.1216 16.3869 12.8066 17.4579 12.8066C17.8044 12.8066 18.1159 12.8241 18.3959 12.8381C19.2184 12.8731 19.6314 12.9221 20.1739 14.2206C20.8494 15.8481 22.4944 19.8661 22.6904 20.2791C22.8899 20.6921 23.0894 21.2521 22.8094 21.7946C22.5469 22.3546 22.3159 22.6031 21.9029 23.0791C21.4899 23.5551 21.0979 23.9191 20.6849 24.4301C20.3069 24.8746 19.8799 25.3506 20.3559 26.1731C20.8319 26.9781 22.4769 29.6626 24.8989 31.8186C28.0244 34.6011 30.5584 35.4901 31.4649 35.8681C32.1404 36.1481 32.9454 36.0816 33.4389 35.5566C34.0654 34.8811 34.8389 33.7611 35.6264 32.6586C36.1864 31.8676 36.8934 31.7696 37.6354 32.0496C38.3914 32.3121 42.3919 34.2896 43.2144 34.6991C44.0369 35.1121 44.5794 35.3081 44.7789 35.6546C44.9749 36.0011 44.9749 37.6286 44.2994 39.5396Z" fill="#FAFAFA"/>
</svg>
