<svg width="156" height="114" viewBox="0 0 156 114" fill="none" xmlns="http://www.w3.org/2000/svg">
<g filter="url(#filter0_d)">
<rect x="9" y="33.3652" width="126" height="72" transform="rotate(-11.1497 9 33.3652)" fill="white"/>
<path d="M17.3781 39.6743C17.2773 39.1629 17.4672 38.8507 17.9351 38.7585L34.7142 35.4515C35.182 35.3593 35.4762 35.576 35.577 36.0874L36.7481 42.0294C36.8489 42.5408 36.659 42.8529 36.1911 42.9451L27.2046 44.7163L29.4427 56.0714L35.8962 54.7995C36.364 54.7073 36.6582 54.9241 36.7589 55.4354L38.0065 61.7654C38.1073 62.2767 37.9174 62.5889 37.4496 62.6811L31.0122 63.9498L33.4031 76.0808L42.793 74.2301C43.2608 74.1379 43.555 74.3547 43.6558 74.866L44.8269 80.8081C44.9277 81.3194 44.7378 81.6316 44.2699 81.7238L27.0714 85.1135C26.6035 85.2057 26.3094 84.9889 26.2086 84.4776L17.3781 39.6743Z" fill="#161615"/>
<path d="M45.1738 41.1548L39.2689 42.3186C38.801 42.4108 38.5069 42.194 38.4061 41.6827L37.2349 35.7407C37.1342 35.2293 37.324 34.9171 37.7919 34.8249L58.1204 30.8183C58.5883 30.7261 58.8824 30.9429 58.9832 31.4542L60.1578 37.4139C60.2586 37.9252 60.0687 38.2374 59.6008 38.3296L53.6959 39.4934L61.2023 77.5789C61.3031 78.0903 61.1132 78.4024 60.6453 78.4947L53.5626 79.8906C53.0947 79.9828 52.8006 79.7661 52.6998 79.2547L45.1899 41.1516L45.1738 41.1548Z" fill="#161615"/>
<path d="M68.3257 36.5918L62.4207 37.7556C61.9528 37.8478 61.6587 37.631 61.5579 37.1197L60.3868 31.1777C60.286 30.6663 60.4759 30.3542 60.9438 30.2619L81.2722 26.2553C81.7401 26.1631 82.0342 26.3799 82.135 26.8912L83.3096 32.8509C83.4104 33.3622 83.2205 33.6744 82.7527 33.7666L76.8477 34.9305L84.3541 73.0159C84.4549 73.5273 84.265 73.8395 83.7972 73.9317L76.7145 75.3276C76.2466 75.4198 75.9525 75.2031 75.8517 74.6917L68.3418 36.5886L68.3257 36.5918Z" fill="#161615"/>
<path d="M84.4295 26.457C84.3287 25.9456 84.5186 25.6335 84.9865 25.5412L101.766 22.2342C102.233 22.142 102.528 22.3588 102.628 22.8701L103.799 28.8121C103.9 29.3235 103.71 29.6357 103.243 29.7279L94.256 31.499L96.494 42.8542L102.931 41.5854C103.399 41.4932 103.693 41.71 103.794 42.2213L105.042 48.5513C105.143 49.0626 104.953 49.3748 104.485 49.467L98.0475 50.7357L100.438 62.8667L109.828 61.016C110.296 60.9238 110.59 61.1406 110.691 61.6519L111.862 67.594C111.963 68.1053 111.773 68.4175 111.305 68.5097L94.1228 71.8962C93.6549 71.9884 93.3608 71.7717 93.26 71.2603L84.4295 26.457Z" fill="#161615"/>
<path d="M120.711 66.6563L113.628 68.0522C113.16 68.1444 112.791 67.8875 112.854 67.2706L115.486 42.61L103.959 22.7364C103.667 22.1895 103.847 21.8244 104.315 21.7322L111.397 20.3363C111.817 20.2536 112.081 20.403 112.3 20.836L118.432 33.2371L119.399 19.4369C119.422 18.9562 119.625 18.7145 120.045 18.6318L127.192 17.2232C127.66 17.131 128.029 17.3879 127.966 18.0048L124.904 40.7354L137.1 62.4737C137.392 63.0206 137.212 63.3856 136.744 63.4778L129.565 64.8929C129.145 64.9756 128.881 64.8261 128.662 64.3931L122.27 51.1824L121.357 65.8512C121.318 66.3351 121.131 66.5736 120.711 66.6563Z" fill="#161615"/>
<path d="M65.6574 89.4682L29.1306 96.6673C28.9048 96.7119 28.6891 96.5529 28.6404 96.306L27.7612 91.8451C27.7125 91.5983 27.8518 91.3693 28.0777 91.3248L64.6044 84.1256L65.6574 89.4682Z" fill="#6054A0"/>
<path d="M139.13 74.9871L102.604 82.1863L101.551 76.8438L138.077 69.6446C138.303 69.6 138.519 69.759 138.568 70.0059L139.447 74.4668C139.512 74.7105 139.356 74.9426 139.13 74.9871Z" fill="#DC191A"/>
<path d="M101.551 76.8436L64.6045 84.1255L65.6575 89.468L102.604 82.1862L101.551 76.8436Z" fill="#008658"/>
</g>
<defs>
<filter id="filter0_d" x="0" y="0" width="155.545" height="113.006" filterUnits="userSpaceOnUse" color-interpolation-filters="sRGB">
<feFlood flood-opacity="0" result="BackgroundImageFix"/>
<feColorMatrix in="SourceAlpha" type="matrix" values="0 0 0 0 0 0 0 0 0 0 0 0 0 0 0 0 0 0 127 0"/>
<feOffset/>
<feGaussianBlur stdDeviation="4.5"/>
<feColorMatrix type="matrix" values="0 0 0 0 0 0 0 0 0 0 0 0 0 0 0 0 0 0 0.2 0"/>
<feBlend mode="normal" in2="BackgroundImageFix" result="effect1_dropShadow"/>
<feBlend mode="normal" in="SourceGraphic" in2="effect1_dropShadow" result="shape"/>
</filter>
</defs>
</svg>
