<svg width="116" height="60" viewBox="0 0 116 60" fill="none" xmlns="http://www.w3.org/2000/svg">
<path d="M0 0.823429C0 0.293426 0.250841 0.0192871 0.735803 0.0192871H18.1275C18.6125 0.0192871 18.8633 0.293426 18.8633 0.823429V6.98244C18.8633 7.51244 18.6125 7.78658 18.1275 7.78658H8.81292V19.5563H15.502C15.987 19.5563 16.2378 19.8305 16.2378 20.3605V26.9215C16.2378 27.4515 15.987 27.7257 15.502 27.7257H8.82964V40.2995H18.5623C19.0473 40.2995 19.2981 40.5737 19.2981 41.1037V47.2627C19.2981 47.7927 19.0473 48.0668 18.5623 48.0668H0.735803C0.250841 48.0668 0 47.7927 0 47.2627V0.823429Z" fill="#161615"/>
<path d="M27.4422 7.76729H21.3216C20.8367 7.76729 20.5858 7.49315 20.5858 6.96315V0.804147C20.5858 0.274144 20.8367 0 21.3216 0H42.3924C42.8773 0 43.1282 0.274144 43.1282 0.804147V6.98142C43.1282 7.51143 42.8773 7.78556 42.3924 7.78556H36.2718V47.2617C36.2718 47.7917 36.021 48.0658 35.536 48.0658H28.1947C27.7097 48.0658 27.4589 47.7917 27.4589 47.2617V7.76729H27.4422Z" fill="#161615"/>
<path d="M51.4394 7.76729H45.3188C44.8338 7.76729 44.583 7.49315 44.583 6.96315V0.804147C44.583 0.274144 44.8338 0 45.3188 0H66.3895C66.8745 0 67.1253 0.274144 67.1253 0.804147V6.98142C67.1253 7.51143 66.8745 7.78556 66.3895 7.78556H60.269V47.2617C60.269 47.7917 60.0181 48.0658 59.5332 48.0658H52.1919C51.7069 48.0658 51.4561 47.7917 51.4561 47.2617V7.76729H51.4394Z" fill="#161615"/>
<path d="M69.5001 0.822208C69.5001 0.292205 69.751 0.0180664 70.2359 0.0180664H87.6276C88.1126 0.0180664 88.3634 0.292205 88.3634 0.822208V6.98122C88.3634 7.51122 88.1126 7.78536 87.6276 7.78536H78.313V19.5551H84.9854C85.4704 19.5551 85.7212 19.8292 85.7212 20.3592V26.9203C85.7212 27.4503 85.4704 27.7244 84.9854 27.7244H78.313V40.2983H88.0457C88.5307 40.2983 88.7815 40.5725 88.7815 41.1025V47.2615C88.7815 47.7915 88.5307 48.0656 88.0457 48.0656H70.2359C69.751 48.0656 69.5001 47.7915 69.5001 47.2615V0.822208Z" fill="#161615"/>
<path d="M97.795 48.0656H90.4537C89.9687 48.0656 89.651 47.7366 89.835 47.1335L97.3101 23.0458L89.7179 0.950142C89.5339 0.347035 89.7848 0.0180664 90.2697 0.0180664H97.6111C98.0459 0.0180664 98.28 0.219104 98.4138 0.69428L102.093 14.2733L105.772 0.69428C105.889 0.219104 106.14 0.0180664 106.574 0.0180664H113.983C114.468 0.0180664 114.785 0.347035 114.601 0.950142L107.076 23.0275L114.969 47.1153C115.153 47.7184 114.902 48.0473 114.417 48.0473H106.976C106.541 48.0473 106.307 47.8463 106.173 47.3711L102.394 32.9331L98.5977 47.3894C98.4639 47.8646 98.2298 48.0656 97.795 48.0656Z" fill="#161615"/>
<path d="M38.3788 60H0.518412C0.284293 60 0.100342 59.799 0.100342 59.5431V54.9193C0.100342 54.6634 0.284293 54.4624 0.518412 54.4624H38.3788V60Z" fill="#6054A0"/>
<path d="M114.535 60H76.6742V54.4624H114.535C114.769 54.4624 114.953 54.6634 114.953 54.9193V59.5431C114.969 59.799 114.769 60 114.535 60Z" fill="#DC191A"/>
<path d="M76.6741 54.4624H38.3789V60H76.6741V54.4624Z" fill="#008658"/>
</svg>
