<svg xmlns="http://www.w3.org/2000/svg" viewBox="0 0 203.2 37.4"  xmlns:v="https://vecta.io/nano"><path d="M203.2 36.3c-2.6 0-5.2-.1-7.8 0-.8 0-1.2-.1-1.2-1.1V1.1c0-.9.3-1.1 1.2-1.1h7.8v36.3zm-23.9-14.9l11.1 14.9h-9.8c-.4 0-.6-.2-.8-.5l-12.7-18.9v-.4h5.6c1.5 0 3-.2 4.4-.9 1.9-1 2.7-2.5 2.6-4.6-.1-2.2-1.2-3.6-3.3-4.3-1-.3-2.1-.5-3.2-.5h-11c-1 0-1.1.3-1.1 1.2V35c0 1-.2 1.4-1.3 1.3-2.3-.1-4.6-.1-6.8 0-.7 0-.9-.2-.9-.9V1c0-.8.2-.9 1-.9h23.4c3.3 0 6.5 1 9 3.3 4.4 4 4.3 11-.2 15-1.8 1.5-3.2 2.2-6 3zM13.4 36.3h-11c-.9 0-1.3-.2-1.2-1.2.1-1.4.1-2.9 0-4.3 0-.9.2-1.2 1.2-1.2H23c1 0 2-.1 2.9-.5 1.8-.7 2.9-2.4 2.8-4.2-.1-1.7-1.3-3.3-3.1-3.9a8.33 8.33 0 0 0-2.2-.3H13.1c-1.9 0-3.7-.2-5.5-.8-5.2-1.4-7.8-5-7.6-10.2.2-4.6 3.2-8 8.1-9.2C9.5.2 10.9 0 12.4 0h21.4c1 0 1.2.3 1.2 1.2-.1 1.4-.1 2.8 0 4.2 0 .9-.2 1-1.1 1H14c-.8 0-1.6 0-2.4.3-1.9.6-2.8 2-2.7 3.9s1.3 3.2 3.3 3.5c.7.1 1.4.1 2.1.1 4 .1 8.1-.2 12.1.1 3.2.3 6.1 1.4 8.4 3.8 4.3 4.5 3.4 14.5-5.2 17.2-1.9.6-3.9.9-5.9.9-3.3.1-6.8.1-10.3.1zm134.5-17.6V24c0 4.8-2.4 8.5-6.5 10.6-7.1 3.7-14.5 3.7-21.6.1-3.9-2-6.4-5.2-6.7-9.8a128.21 128.21 0 0 1 0-12.4c.3-5 3.1-8.3 7.4-10.3 6.5-3 13.3-3 19.8-.1 4.8 2.2 7.6 5.9 7.6 11.4v5.2zM80.7 36.3h-8.8c-.7 0-.9-.3-1.1-.8l-3.9-9c-.3-.7-.7-.9-1.4-.9H52.4c-.7 0-1.1.2-1.4.9l-3.9 8.9c-.3.6-.6.9-1.3.9h-8.2l2.3-4.9 14-30.1c.4-.9.8-1.2 1.8-1.2h7.9c.6 0 1 .1 1.3.8l15.6 34.7c.1.2.1.4.2.7zM92.6.1h16.9c1 0 1.2.3 1.2 1.2-.1 1.4-.1 2.8 0 4.2 0 .9-.3 1.1-1.1 1H98.5c-1.1 0-1.5.2-1.5 1.4l.1 27.2c0 1-.2 1.4-1.3 1.3-2.2-.1-4.3-.1-6.5 0-1 0-1.2-.3-1.2-1.2V7.8c0-1-.2-1.3-1.2-1.3-3.8.1-7.7 0-11.5 0-.8 0-1-.2-1-1 .1-1.5.1-2.9 0-4.4 0-.8.2-1 1-1h17.2z" fill="#ec1c24"/><path d="M122 18.8v-4.3c0-4 2-6.5 5.9-7.4 2.2-.5 4.4-.4 6.5.4 2.9 1 4.6 3.5 4.6 6.6v8.8c0 4-2 6.5-5.9 7.4-2.3.5-4.7.5-6.9-.6-2.7-1.2-4.2-3.3-4.2-6.3v-4.6zm-58.2.5c-.3 0-.4.1-.6.1h-8.9l4.9-10.9 4.6 10.8z" fill="#fefefe"/></svg>