<svg xmlns="http://www.w3.org/2000/svg" width="24" height="24" fill="none"  xmlns:v="https://vecta.io/nano"><path d="M23.3467 17.6136l-3.3492-3.3493c-1.1962-1.1962-3.2297-.7176-3.7082.8373-.3588 1.0766-1.555 1.6747-2.6315 1.4354-2.3924-.5981-5.62202-3.7081-6.22011-6.22-.35885-1.07664.35885-2.27281 1.4354-2.63162 1.55501-.47847 2.03351-2.51195.83732-3.70812L6.36114.627989c-.95694-.837318-2.39234-.837318-3.22966 0L.858765 2.90071C-1.41396 5.29305 1.098 11.6327 6.71999 17.2547S18.6817 25.5083 21.074 23.116l2.2727-2.2728c.8374-.9569.8374-2.3923 0-3.2296z" fill="#362d5f"/></svg>