<svg xmlns="http://www.w3.org/2000/svg" width="72" height="72" fill="none"  xmlns:v="https://vecta.io/nano"><g filter="url(#A)"><path fill-rule="evenodd" d="M36 62c15.464 0 28-12.536 28-28S51.464 6 36 6 8 18.536 8 34s12.536 28 28 28z" fill="#11a5ee"/></g><path d="M43.0093 40.0339c.8557-2.3387 3.9889-11.2328 4.492-13.5654.5688-2.6375-.6219-2.8949-3.3301-2.0103s-9.6536 3.4588-10.8226 3.8737-6.8601 2.3277-8.04 2.8984c-2.4099 1.2927-1.2376 3.2654 1.4566 4.2897 8.0525 3.8653 5.766 1.8956 9.361 9.0477.7399 1.8271 2.4844 4.9392 4.1552 2.5867.8783-1.3379 2.0549-5.2814 2.7279-7.1205z" fill="#fff"/><defs><filter id="A" x="0" y="0" width="72" height="72" filterUnits="userSpaceOnUse" color-interpolation-filters="sRGB"><feFlood flood-opacity="0" result="A"/><feColorMatrix in="SourceAlpha" values="0 0 0 0 0 0 0 0 0 0 0 0 0 0 0 0 0 0 127 0"/><feOffset dy="2"/><feGaussianBlur stdDeviation="4"/><feColorMatrix values="0 0 0 0 0 0 0 0 0 0 0 0 0 0 0 0 0 0 0.1 0"/><feBlend in2="A"/><feBlend in="SourceGraphic"/></filter></defs></svg>