<svg xmlns="http://www.w3.org/2000/svg" xmlns:xlink="http://www.w3.org/1999/xlink" viewBox="0 0 512 512" xmlns:v="https://vecta.io/nano"><path d="M234.7 490.3C105.3 490.3 0 385.1 0 255.7S105.3 21 234.7 21c45 0 88.8 12.8 126.6 37.1 7.4 4.8 9.6 14.7 4.8 22.1S351.4 89.8 344 85c-32.6-21-70.4-32-109.3-32C122.9 53 32 143.9 32 255.7c0 111.7 90.9 202.7 202.7 202.7 111.7 0 202.7-90.9 202.7-202.7 0-6.7-.3-13.3-.9-19.8-.9-8.8 5.6-16.6 14.4-17.5 8.8-.8 16.6 5.6 17.5 14.4.7 7.5 1.1 15.2 1.1 22.9-.2 129.4-105.5 234.6-234.8 234.6zM261.3 309c-4.1 0-8.2-1.6-11.3-4.7l-96-96c-6.2-6.3-6.2-16.4 0-22.6s16.4-6.2 22.6 0l84.7 84.7L484.7 47c6.3-6.2 16.4-6.2 22.6 0s6.2 16.4 0 22.6L272.7 304.3c-3.2 3.1-7.3 4.7-11.4 4.7z" fill="#595675"/><image width="226" height="168" xlink:href="A507106C149A4028.png" transform="matrix(.5 0 0 .5 -177.5 180.252)" overflow="visible"/></svg>