<svg xmlns="http://www.w3.org/2000/svg" viewBox="0 0 512 512"><path d="M506.7 145.7s-5.3-38-20.3-54.7c-19.4-22.1-41.5-22.1-51.2-23-71.5-5.3-179.2-6.2-179.2-6.2s-107.7.9-179.2 6.2c-9.7.9-31.8 1.8-51.2 23-15.9 16.7-20.3 54.7-20.3 54.7s-5.3 45-5.3 90v41.5c0 45 5.3 89.2 5.3 89.2s5.3 38 20.3 54.7c19.4 22.1 45 21.2 56.5 23.8 40.6 4.4 173.9 5.3 173.9 5.3s107.7 0 179.2-6.2c9.7-.9 31.8-1.8 51.2-23 15-16.8 20.3-54.7 20.3-54.7s5.3-45 5.3-89.2v-41.5c0-44.9-5.3-89.9-5.3-89.9" opacity=".85" fill="#d8362a"/><path fill="#fff" d="M194.2 166.8v191.6l167.7-93.6z"/></svg>